/* XPM */
static char *_117b25ae7a848d5831924c71ca5cdfczV0NxUGXcl5pf3is[] = {
/* columns rows colors chars-per-pixel */
"64 64 184 2 ",
"   c #000000",
".  c #080706",
"X  c #090907",
"o  c #0D0B0A",
"O  c #110E0D",
"+  c #15120E",
"@  c #151412",
"#  c #191613",
"$  c #1D1A16",
"%  c #1E1C19",
"&  c #211B16",
"*  c #25211D",
"=  c #2E281F",
"-  c #262421",
";  c #292522",
":  c #2B2926",
">  c #282728",
",  c #2E2D2B",
"<  c #352E27",
"1  c #322E2A",
"2  c #36322D",
"3  c #3A332D",
"4  c #3D3733",
"5  c #3D3833",
"6  c #42372E",
"7  c #403630",
"8  c #423D34",
"9  c #493D33",
"0  c #403B38",
"q  c #533F31",
"w  c #4C4036",
"e  c #46413B",
"r  c #4C433D",
"t  c #4E483E",
"y  c #524133",
"u  c #54453A",
"i  c #5A473A",
"p  c #57483B",
"a  c #5C4B3D",
"s  c #634D3D",
"d  c #6A523F",
"f  c #413F43",
"g  c #4E4842",
"h  c #504741",
"j  c #534C43",
"k  c #5B4D42",
"l  c #584F48",
"z  c #575146",
"x  c #5A5247",
"c  c #54514D",
"v  c #5B544B",
"b  c #494D51",
"n  c #4F535A",
"m  c #545252",
"M  c #5E5A55",
"N  c #515559",
"B  c #5C5A5A",
"V  c #634F41",
"C  c #635244",
"Z  c #6B5544",
"A  c #6D5945",
"S  c #63564B",
"D  c #6A5648",
"F  c #63594D",
"G  c #6C5B4B",
"H  c #705746",
"J  c #725B47",
"K  c #725C4B",
"L  c #795F4F",
"P  c #615751",
"I  c #645C53",
"U  c #695E52",
"Y  c #605E5A",
"T  c #765F50",
"R  c #75604E",
"E  c #7A634F",
"W  c #666052",
"Q  c #6C6155",
"!  c #64615B",
"~  c #6B635B",
"^  c #746252",
"/  c #7A6554",
"(  c #766857",
")  c #7C6956",
"_  c #736658",
"`  c #7C6658",
"'  c #73695B",
"]  c #7D6B5C",
"[  c #595D63",
"{  c #5E646B",
"}  c #5F696F",
"|  c #5E6972",
" . c #646465",
".. c #686863",
"X. c #656669",
"o. c #6C6C6A",
"O. c #746C63",
"+. c #7C6E62",
"@. c #756F69",
"#. c #757067",
"$. c #7D7064",
"%. c #7C736B",
"&. c #616A71",
"*. c #696E73",
"=. c #6D7174",
"-. c #6E777E",
";. c #757474",
":. c #7C7974",
">. c #7C7B7A",
",. c #826957",
"<. c #826C5C",
"1. c #85705E",
"2. c #876E60",
"3. c #857264",
"4. c #8A7464",
"5. c #8F7866",
"6. c #83756A",
"7. c #8C776A",
"8. c #877B6F",
"9. c #8C7A6B",
"0. c #927C6C",
"q. c #867C74",
"w. c #8B7D71",
"e. c #827F7B",
"r. c #957F70",
"t. c #93806F",
"y. c #8E8379",
"u. c #958273",
"i. c #998575",
"p. c #92867A",
"a. c #9A8779",
"s. c #94897E",
"d. c #9D8A7B",
"f. c #A18775",
"g. c #A28C7B",
"h. c #A88F7B",
"j. c #A4917F",
"k. c #6D7B85",
"l. c #7A7F82",
"z. c #707C88",
"x. c #7C8287",
"c. c #878481",
"v. c #8C8582",
"b. c #828788",
"n. c #87898A",
"m. c #8D8D8B",
"M. c #958B82",
"N. c #9A8F84",
"B. c #968E88",
"V. c #998F8A",
"C. c #9E9184",
"Z. c #90908F",
"A. c #9E9489",
"S. c #8B8F91",
"D. c #8C9192",
"F. c #969791",
"G. c #96979A",
"H. c #969B9D",
"J. c #A18F81",
"K. c #A49384",
"L. c #AA9484",
"P. c #A4968A",
"I. c #A5998F",
"U. c #AB9A8B",
"Y. c #B19C89",
"T. c #A79C93",
"R. c #AB9D90",
"E. c #AEA194",
"W. c #B4A69C",
"Q. c #BAAA9E",
"!. c #8998A2",
"~. c #929BA1",
"^. c #98A2A7",
"/. c #9BA5AB",
"(. c #A4A5A4",
"). c #BEAEA2",
"_. c #BEB2A7",
"`. c #A5AFB6",
"'. c #A9B2B7",
"]. c #ACB5B9",
"[. c #B2B6B3",
"{. c #C0AEA2",
"}. c #C1B1A6",
"|. c #C2B4A9",
/* pixels */
"                                                                                                                                ",
"                                                                                                                                ",
"                                                                                                                                ",
"                                                                                                                                ",
"                                                                                                                                ",
"                                                                                                                                ",
"                                                                                                                                ",
"                                                                                                                                ",
"                                                                                                                                ",
"                                                                                                                                ",
"                                                                                                                                ",
"                                                                                                                                ",
"                                                                                                                                ",
"                                                                                                                                ",
"                                                                                                                                ",
"                                                                                                                                ",
"                                                                                                                                ",
"                                                                                                                                ",
"                                                                                                                                ",
"                                                                                                                                ",
"                                                                                                                                ",
"                                                                                                                                ",
"                                                                                                                                ",
"                                                                                                                                ",
"                                                                                                                                ",
"                                                                                                                                ",
"                                                                                                                                ",
"                                            o % 4 2 0 h v P I ~ ~ z h g e 5 1 - @                                               ",
"                                        , w.d.K.L.g.j.j.j.h.g.h.g.g.f.h.L.L.L.Y.Y.K.v.>                                         ",
"                                        [ G.y.q.C.P.W._.|.}.{.}.|.|.).Q.Q.L.L.g.9.9.%.e                                         ",
"                                        =.S.=.=.l.&.-.z.k.!.].'.'.H.b.;...Y M c z M x g                                         ",
"                                        C.M.;.;.=.{ } [ | &.^.].`.~.x.;... .v v v F z a                                         ",
"                                      . G.m.y.C.N.P.r.6.6.+.s.M.p.w.%.$._ ^ ( ] / K G W X                                       ",
"                                      2 B.>.{  .N n { X.*.n.(.(.(.G.y.:.#.' ~ Q x x x W $                                       ",
"                                      M W.U.K.a.6.O...Y B o.Z.H.H.m.:.O.' Q Q Q F D D R =                                       ",
"                                      ..F.P.E.U.U.E.U.L.J.g.J.J.d.d.u.t.9.3.7.4.1.) R R w                                       ",
"                                      ;.e.o...o...:.v.V.v.I.T.T.T.C.s.p.9.3.$.+.Q W G Q v                                       ",
"                                      E.U.a.q.@.Y m N N [ l.~./.`.^.n.:.@.! ~ M W F F A a                                       ",
"                                    , E.U.U.L.L.R.P.a.0.7.6.p.M.s.p.8.3.] ) ( / ] / / G D                                       ",
"                                    , M.P.I.L.L.U.U.J.g.a.g.J.d.d.i.t.t.4.<.<.] <./ ^ K D O                                     ",
"                                    0 O.@. .:.8.M.N.J.g.d.g.a.i.i.i.t.9.4.1.) <.] ^ W F I #                                     ",
"                                    Y w.O.m [ B c b b N  .=.>.l.D.G.c.%.#.#.' I v v v v k +                                     ",
"                                    ~ P.J.d.7.+.~ l g f f [ X.*.x.H.x.#.~ ~ Q S x x a C C &                                     ",
"                                    ~ K.g.d.g.d.K.a.r.9.7.7.7.3.6.3.] ] R K G R E d d C s &                                     ",
"                                    I d.i.i.i.i.d.d.i.i.u.i.u.0.r.9.4.1.,.L R R R Z d y i +                                     ",
"                                    v i.r.i.0.r.i.u.r.0.0.u.0.9.7.4.<.,.J d d H J d s q i O                                     ",
"                                    h u.5.0.5.0.i.i.r.r.0.9.9.4.7.1.,.,.J d d Z A s s q q X                                     ",
"                                    u u.5.5.5.5.r.w.I.[.A.5.4.<.3.] / / L H Z H A s i y q                                       ",
"                                    e w.5.9.1.4.u.0.p.Z.8.4.1.,.2.,./ ^ K A D A A s a i 9                                       ",
"                                    : w.5.5.3.4.0.7.,.R G ,.,.,.] ,./ E K Z Z Z A C s i 3                                       ",
"                                    @ ' ' 3.7.4.7.3.,.E J ^ ` ` ` / / ^ A Z C A D V a 9 *                                       ",
"                                    . 3.^ U I O.$.$.] ` ^ ` / ^ / / ^ L J C C C k u 2 5 $                                       ",
"                                      ] 3.` ^ ^ Q _ F j j F U U U I F v j h j h j t 8 7 +                                       ",
"                                      _ 3.4.1.<.) ^ D V C S S F F F v k k h k k k a i 9 o                                       ",
"                                      j 4.2.<.<.4.1./ / L T J H T T K J A Z V V V a u 6                                         ",
"                                      2 ] +.2.<.1.<.,.` ` ,.L T / K K K A A V V s a 9 *                                         ",
"                                      * ,.^ ( ' +.+.] +.+.] ` ^ / T K G A D V k p 4 1 +                                         ",
"                                      o ] ] / R ^ T I U Q Q ~ Q U I F S l c j r w 9 3 .                                         ",
"                                        U ~ ) ) ,.` T K A G G D G G S S C k i a i 9 ;                                           ",
"                                        j ` _ ( ( _ U T T T G Z K T G A Z a u u 3 ; #                                           ",
"                                        3 _ ] ^ G S F F I v F I P F v l j t 0 8 7 < o                                           ",
"                                        X t U Q U U D D D D D C D C S V k u u 9 < *                                             ",
"                                            - j F v M I P F S S S k j u 9 4 < : : o                                             ",
"                                                O - 4 9 j l j v j g g r 5 - % @                                                 "
};
