/* XPM */
static char *_9f15dca6c184f17831e6185d5b6f5acqiVMJUhTpsASpJLI[] = {
/* columns rows colors chars-per-pixel */
"64 64 139 2 ",
"   c #000000",
".  c #0D0100",
"X  c #010C00",
"o  c #0F0A05",
"O  c #03050B",
"+  c #09060B",
"@  c #05080D",
"#  c #0C0C0D",
"$  c #021300",
"%  c #041B00",
"&  c #0E0E10",
"*  c #101110",
"=  c #052300",
"-  c #062C00",
";  c #073200",
":  c #083600",
">  c #083B00",
",  c #0A4500",
"<  c #0A4C00",
"1  c #0C5500",
"2  c #0D5B00",
"3  c #0E6400",
"4  c #0F6C00",
"5  c #106F00",
"6  c #107400",
"7  c #127D00",
"8  c #138500",
"9  c #148D00",
"0  c #159300",
"q  c #169E00",
"w  c #169F00",
"e  c #169D00",
"r  c #169B00",
"t  c #17A000",
"y  c #16A100",
"u  c #17A300",
"i  c #17A400",
"p  c #16A200",
"a  c #18A700",
"s  c #18A700",
"d  c #18A800",
"f  c #18A900",
"g  c #18AA00",
"h  c #18AC00",
"j  c #18AD00",
"k  c #19AF00",
"l  c #18AC00",
"z  c #19B100",
"x  c #1AB300",
"c  c #19B400",
"v  c #1AB500",
"b  c #1AB600",
"n  c #1AB700",
"m  c #1AB400",
"M  c #1AB900",
"N  c #1BB900",
"B  c #1ABA00",
"V  c #1ABB00",
"C  c #1BBB00",
"Z  c #1BBE00",
"A  c #1ABB00",
"S  c #1BC000",
"D  c #1BC200",
"F  c #1BC300",
"G  c #1CC200",
"H  c #1CC600",
"J  c #1CC700",
"K  c #1CC400",
"L  c #1CC800",
"P  c #1CC900",
"I  c #1DCA00",
"U  c #1CCB00",
"Y  c #1DCC00",
"T  c #1DCE00",
"R  c #1DCF00",
"E  c #1CCB00",
"W  c #1DD100",
"Q  c #1ED100",
"!  c #1ED200",
"~  c #1ED300",
"^  c #1ED400",
"/  c #1ED500",
"(  c #1ED600",
")  c #1FD600",
"_  c #1ED300",
"`  c #1ED800",
"'  c #1FD800",
"]  c #1FD900",
"[  c #1EDA00",
"{  c #1FDA00",
"}  c #1FDB00",
"|  c #1FDC00",
" . c #1FDE00",
".. c #1FDF00",
"X. c #1FDB00",
"o. c #20DD00",
"O. c #20DF00",
"+. c #20DE00",
"@. c #1FE000",
"#. c #1FE000",
"$. c #20E100",
"%. c #20E200",
"&. c #20E300",
"*. c #20E400",
"=. c #20E500",
"-. c #20E600",
";. c #21E600",
":. c #21E700",
">. c #20E300",
",. c #20E800",
"<. c #21E800",
"1. c #21E900",
"2. c #21EA00",
"3. c #21EB00",
"4. c #21EC00",
"5. c #21ED00",
"6. c #21EE00",
"7. c #22EE00",
"8. c #21EB00",
"9. c #22F000",
"0. c #22F100",
"q. c #22F400",
"w. c #22F500",
"e. c #23F500",
"r. c #23F700",
"t. c #22F300",
"y. c #23F800",
"u. c #23FA00",
"i. c #23FB00",
"p. c #24FC00",
"a. c #24FD00",
"s. c #24FE00",
"d. c #24FF00",
"f. c #25FF00",
"g. c #26FF00",
"h. c #27FF00",
"j. c #24FD00",
"k. c #28FF00",
"l. c #28FF00",
/* pixels */
"                                                                                                                              # ",
"                                                                                                                              # ",
"                                                                                                                              # ",
"                                                                                                                              # ",
"                                                                                                                              & ",
"        n 0.r %       - / ! 2 X     , K u.L ;       , L y.K -       6 ;.4.8 X       > O.S 1 X       0 #.f =       1 ! 4.M =   + ",
"        L >.j =       > 4.G 7 $   % O.3.0 4.! =   = >.>.r 0.Y %   6 u.A S p.7 X     < 0.z 6 X       r #.f ,     : 4.o.r e.N $   ",
"        ! j $         > p.1       7 p.<   7 p.<   7 p.<   7 k.,   / ;.%   ] | %     < u.>           y Y %       0 p.;   0 p.- O ",
"        ! j $         > u.1       r p.:   < p.5   r y.-   1 p.3 X >.z $   d r.=     < i.>           y U %       n ;.%   3 y.< + ",
"        ! j $         > u.1       d p.:   < y.5   j p.-   1 p.3 $ ;.n $   d 0.=     < i.>           y Y %       G 3.%   3 y.< X ",
"        ! j $         > i.1       9 k.<   7 p.<   9 k.,   7 p.,   ] >.%   ] #.%     < u.>           y Y $       y p.;   0 p.- O ",
"    % < ;.L 1 %     - 7 i.r > X   - ;.Y 6 / >.=   : 3.K 6 o.o.=   8 p.9 0 p.9 X   ; 9 i.8 : X   X , A / 3 - X   , 0.M 7 >.K $ + ",
"    7 i.p.p.k.7     C p.p.p.p.:     2 4.p.r.<       3 4.p.r.,     X j p.p.M $   X Y p.p.p.0.=   1 4.p.p.p.y X     6 e.p.;.>   # ",
"                                      X = X           X = X           % %                                           X =       # ",
"                                                                                                                              # ",
"                                                                                                                              # ",
"        n 0.r %     X t e.3.2 X       7 >.M -       , L e.L -         L >.9 $       > O.S 1 X       0 | d =       1 ! 0.n %   @ ",
"        L >.j =     y p.0 Y p.,       9 3.z , X   = >.;.0 0.! %       ] / s %       < 0.z 5 X       r >.i ,     > 4.] r r.n $ O ",
"        / j $     - 4.y X = 4.y X     9 ] -       7 p.<   8 p.,       >.0 X         < u.>           i U %       0 p.;   0 p.- O ",
"        ! j X     < p.7     o.S %     0 ] -       t p.-   1 p.3       >.0 X         < u.>           y U %       z 3.%   3 r.< @ ",
"        ! j $     1 p.6     ] G %     9 ] -       j p.-   1 i.3       >.0 X         < u.>           y L %       K 4.%   5 r.< @ ",
"        ! j $     > 0.i X = 4.y X     0 ] -       9 k.,   8 p.,       >.0 X         < u.>           y Y %       y p.-   0 p.- + ",
"    = < ;.Y 1 %     A p.6 z k.<   X > v >.6 -     ; 3.L 6 / ] =   = 1 3.N 1 %     : 8 p.8 > X   X < A ] 3 -     , 0.M 7 >.K $ & ",
"    7 p.p.p.k.7 X   = L p.p.8 X   > ;.p.p.p.z $     3 4.p.r.<     0 u.p.p.p.4   X Y p.p.p.4.%   < 4.p.p.p.y X     6 r.p.;.:   & ",
"                        % X                           X = X                                                         X = X     & ",
"                                                                                                                              & ",
"                                                                                                                              # ",
"                                                                                                                              o ",
"O     3 ;.e.0 $       - / ! 3 X     , K e.L ;       , K r.K -       6 ;.4.8 X       > O.S 1 X       0 | d =       1 ! 0.n =   o ",
"    3 y.K n p.0 X     > 3.G 6 %   % O.3.0 0.! %   = >.;.r 0.! %   6 i.M A p.7 X     < 0.z 5 X       r >.s ,     : 4.] r e.M X o ",
"    G e.-   L y.-     > u.1       7 p.<   7 p.<   7 p.<   7 p.,   / ;.%   ] | %     < u.>           y U %       0 p.-   0 p.- o ",
"    o.K %   0 p.>     > i.1       r p.:   1 p.5   r p.-   1 p.3 X O.n $   s r.=     < u.>           y U %       z 3.%   5 y.< o ",
"  X o.L %   0 p.>     > i.1       s p.:   < p.4   j p.-   1 p.3 $ ;.n $   s 0.=     < u.>           y L %       S 3.%   3 y.< . ",
"    K e.;   K y.-     > i.1       9 k.<   7 p.<   9 k.,   8 p.,   ] ;.%   ] #.%     < u.>           y Y %       i p.;   0 p.- . ",
"    5 p.r 9 p.y X   - 7 p.r > X   - 3.Y 6 o.#.=   ; ;.L 6 o.o.%   8 p.0 0 i.9 X   : 9 p.8 > X   X , A ] 4 =     , 0.M 7 >.K $ . ",
"    X r p.p.K =     C p.p.p.p.;     1 3.p.r.<       3 4.p.0.<     X d p.p.n %   X Y p.p.p.0.%   1 0.p.i.p.r $     6 e.p.;.>   . ",
"        % %                           X = X           X = X           % %                                           X = X     . ",
"                                                                                                                              O ",
"                                                                                                                              @ ",
"        n 0.r %       - / Y 3 X     , K u.L ;       , L y.K ;         L >.9 $       > O.S 1 X     1 Y r.M =       1 ! 0.M %   @ ",
"        I O.j =       > 3.G 7 $   % >.3.0 4.o.%   = >.;.r 4.Y %       ] / d %       < 0.z 6 X   ; 4.] r r.G $   : 4.] r r.M $ O ",
"        o.s $         > i.1       7 p.<   7 y.<   8 p.,   8 p.<       >.0 X         < u.>       9 p.:   9 p.;   0 p.;   0 p.- O ",
"        o.j $         > i.1       r p.:   < p.5   r p.-   1 y.3       >.0 X         < u.>       j 4.=   3 u.1   n ;.%   3 r.< @ ",
"        T j X         > i.1       d p.:   < y.5   j p.-   1 p.3       >.0 X         < u.>       A 4.%   3 u.1   S 3.%   3 r.< * ",
"        o.j X         > i.1       8 k.1   6 k.<   9 k.,   7 p.,       #.0 X         < y.>       r p.:   9 p.:   s p.-   0 p.- # ",
"    % < O.K 1 % X   - 7 p.0 > X   - ;.Y 6 o.#.=   : 3.K 6 o.o.=   = 1 0.M 1 %     ; 9 p.8 > X   , 4.G 6 O.Y %   , 0.N 7 >.K $ * ",
"    8 y.p.p.k.8     C p.p.p.p.:     2 4.p.r.<       2 4.p.e.<     0 u.p.p.p.5   X Y p.p.p.0.%     5 0.p.;.>       6 e.p.;.:   & ",
"                                      X = X           X = X                                         $ = X           X % X     # ",
"O                                                                                                                             . ",
"                                                                                                                              . ",
"                                                                                                                              . ",
"      3 >.r.0 $     X r r.3.2         7 >.M -       , L y.K -       6 ;.4.8 X       > O.S 1 X       0 O.f =       1 ! 0.n =   . ",
"    3 e.K n p.0 X   i p.0 Y p.<       9 ;.n , X   = >.;.0 0.! %   6 u.M A p.7 X     < 0.z 6 X       y #.d ,     : 4.o.r r.M $ . ",
"    G e.-   L u.= % 4.y X = 3.y X     0 ] -       7 p.<   8 p.,   / ;.%   | #.%     < u.>           y U %       0 p.-   0 p.-   ",
"    o.K %   0 p.- > p.7     o.C $     0 ] -       y y.-   1 y.3 X | n $   s r.=     < u.>           y Y $       v 3.%   3 y.< . ",
"  X o.G %   0 p.- , p.6     ] G %     9 ] -       z p.-   1 p.3 $ ;.z $   i r.=     < u.>           y L %       G 3.%   5 y.<   ",
"    K y.-   G r.% - 0.s X = 4.y X     9 ] -       9 p.,   7 p.,   ] ;.%   ] #.%     < y.>           y Y %       t p.;   0 p.-   ",
"    6 p.r 9 p.y X   A p.6 z k.<   X > n O.6 -     : 3.L 6 / o.=   8 p.0 0 p.9 X   ; 8 p.8 > X   X < A ] 3 = X   , 0.N 7 >.K $ . ",
"    X 0 p.p.L =     = K p.p.8 X   > >.p.p.p.z %     2 0.p.r.<     X d p.p.n %   $ Y p.p.p.0.=   < 4.p.p.p.r X     6 e.p.;.:   O ",
"        % %             % X                           X = X           % %                                           X = X     O ",
"                                                                                                                              O ",
"                                                                                                                              O ",
"                                                                                                                              O ",
"                                                                                                                              O "
};
