/* XPM */
static char *_ccc64842b2c4c20c29e4bdb575e8156wc5rXtpISO3bOkyT[] = {
/* columns rows colors chars-per-pixel */
"64 64 160 2 ",
"   c #795957",
".  c #7A575D",
"X  c #7D5B5E",
"o  c #825F66",
"O  c #815B68",
"+  c #846363",
"@  c #896165",
"#  c #896A67",
"$  c #86656A",
"%  c #8A656D",
"&  c #8C6A6D",
"*  c #8E716F",
"=  c #8D6770",
"-  c #8D6A72",
";  c #926C74",
":  c #946E7A",
">  c #986F7B",
",  c #8E7073",
"<  c #947175",
"1  c #987076",
"2  c #95727A",
"3  c #9A747D",
"4  c #9C7A7E",
"5  c #977180",
"6  c #9B7582",
"7  c #9E7A83",
"8  c #A07785",
"9  c #A27B85",
"0  c #A47E8A",
"q  c #A87E8B",
"w  c #A87E91",
"e  c #A58287",
"r  c #A88086",
"t  c #A6828B",
"y  c #AA838E",
"u  c #AB8A8D",
"i  c #A78192",
"p  c #AC8592",
"a  c #AE8994",
"s  c #AE8799",
"d  c #AE8898",
"f  c #B18593",
"g  c #B18B96",
"h  c #B48D9B",
"j  c #B88E9D",
"k  c #AF9093",
"l  c #B29396",
"z  c #B6919C",
"x  c #B9929E",
"c  c #B7989D",
"v  c #B8989F",
"b  c #B68EA0",
"n  c #B88FA1",
"m  c #B792A2",
"M  c #BC95A4",
"N  c #BE99A5",
"B  c #BE96A9",
"V  c #BE99A9",
"C  c #C097A6",
"Z  c #C19AA6",
"A  c #C097A8",
"S  c #C49CAC",
"D  c #C89FAF",
"F  c #C69FB1",
"G  c #C89FB1",
"H  c #C1A2A6",
"J  c #C6A1AE",
"K  c #C9A1AE",
"L  c #C6A1B1",
"P  c #CBA3B4",
"I  c #CDA8B6",
"U  c #CEA6B9",
"Y  c #CEA9B9",
"T  c #D0A7B7",
"R  c #D0AAB7",
"E  c #D0A7BA",
"W  c #D3AEBE",
"Q  c #D1ACBD",
"!  c #D4ADBF",
"~  c #D2ABBB",
"^  c #D6B0BB",
"/  c #D6B1BE",
"(  c #D2ABC0",
")  c #D1ACC1",
"_  c #D3ADC0",
"`  c #D3AEC3",
"'  c #D5AFC1",
"]  c #D6AFC1",
"[  c #D4ADC2",
"{  c #D5AFC4",
"}  c #D4AEC1",
"|  c #D8AFC2",
" . c #D4B1C1",
".. c #D5B0C3",
"X. c #D7B2C5",
"o. c #D6B2C6",
"O. c #D6B3C7",
"+. c #D7B3C7",
"@. c #D6B0C4",
"#. c #D6B1C3",
"$. c #D8B1C4",
"%. c #D9B4C4",
"&. c #D9B4C5",
"*. c #D9B4C7",
"=. c #D9B5C7",
"-. c #DAB4C7",
";. c #DBB4C7",
":. c #DAB3C4",
">. c #D8B9C7",
",. c #D5B3C8",
"<. c #D7B3CA",
"1. c #D6B4C8",
"2. c #D9B3CA",
"3. c #DBB4C8",
"4. c #DBB6C9",
"5. c #DAB5CA",
"6. c #D8B6CB",
"7. c #DCB7CA",
"8. c #DBB4CC",
"9. c #DBB4CD",
"0. c #DBB7CD",
"q. c #DBB5C9",
"w. c #DBB8CA",
"e. c #DAB8CB",
"r. c #DBB8CB",
"t. c #DAB9CB",
"y. c #DDB8C9",
"u. c #DAB8CC",
"i. c #DCB8CC",
"p. c #DDB9CD",
"a. c #DEB9CC",
"s. c #DFBBCD",
"d. c #DCB8CF",
"f. c #DDB8CF",
"g. c #DDB9CC",
"h. c #DFB9D1",
"j. c #DCBDD0",
"k. c #E0BBCE",
"l. c #E0BBCF",
"z. c #E2BECD",
"x. c #E0BDCE",
"c. c #E1BACC",
"v. c #E1B8D1",
"b. c #E0B9D1",
"n. c #E0BBD0",
"m. c #E0BAD1",
"M. c #E0BBD1",
"N. c #E2B9D2",
"B. c #E2BBD2",
"V. c #E2BDD3",
"C. c #E1BCD4",
"Z. c #E3BCD4",
"A. c #E4BCD4",
"S. c #E5BDD5",
"D. c #E1BCD1",
"F. c #E4C3D2",
"G. c #E9C4D5",
"H. c #E6C9D5",
"J. c #E9C9D6",
"K. c #E8C1D9",
/* pixels */
"l N l k u e t N u e e < < , 4 e $ , , * , # # # # # +       # + # + X + < - u 4 $ , e e k u a k k c l k z H H v N N H H v v v H ",
"#.X.g.s.t.t.s.t.t.t.j.j.>.>. .V V P J P H N M M v h z p y z M g p y y s u h z M L Y  . .Q Q @.Y Y X.I ) %.t.) #.#.~ ) ) U F F U ",
"I ,.) X.t.t.1.,.X.t.X.` ) )  .5.5.2.j.<.0.N.h.h.<.0.s.C.K.V.S.V.s.V.V.j.h.0.j.x.q.%.-.U I ) ) P P P P ) / Q k.E m U V A ~ P U J ",
"L U I I Y I I U Y Y P I F L U P U ) Y U Q ] U ~ ] U S L A Y Y I Y Q P Y P L L A n M M M V L V L F F Y E Y P T a 0 K M N I A N c ",
"I Q Q P Y I U U I U I U P U P P G G J S G S S F P g d g S ^ P K K D J S S A V S Z C j S K K S P P L P ~ I L S S T K K A S N B v ",
"H I Y Y Y I Y Y T U E T Y U E E T T U P U U T P Y m g A ! / Q Y P P U F L L P P D M S P P P P I P J P T I I K U D S S A S A Z Z ",
"L P I I Y ~ ~ Y E U P U U U I U P P T E E E U T E x g S I $.E P I U U P S F P S S D D U K S S P J V J P I U J S S S S Z S J S N ",
"I Q Q Q Y Q Y I P P U U U E T U P P U U P U E G E h a P E / I P I U U P S S G P P S h S D S S K L N J I I P J K P S S S S Z S N ",
"I Y ~ J P Q P P U P P T U T G P T U P P U G P G E g g / #.E ~ E I P J L P F G P S M b S D A S K J N P ~ I P D D D S D A Z A S M ",
"H P P P Q  .I I P D T T E P G G T P P U E T G T T d h R Q Y I I I L P P P F G G j M A K D S Z D S P K Z P D D S S S S S S Z S c ",
"J I E $.$.~ ~ P P P E ~ G F U P P P T P U U E G T g s P Y E I I P U U L G F P A g P S P D D K P I I x S P K D A Z D S Z Z S S Z ",
"^ #.$.-.! #.#.Y ~ | | E T [ | [ | ;.| ~ | ~ T [ ~ g M ~ #./ ~ E #.( Y E E T T T T ! U T T ~ ^ ^ Q I ! / R ! R R ~ T P P P T P C ",
"l N c x M V z h x j g M A x j x c M g x N C Z S x h A / / I T T P S S S A Z M x x h x x C v x g a h g y x u 9 q 9 2 0 g f g e & ",
"k a u a z h a a a t a g t 9 9 9 7 7 6 8 4 t 0 9 g M B P h h h a 7 9 q 0 9 0 9 4 9 4 4 4 4 1 1 % & ; * 1 < 1 o o # < 9 2 < 2 2 e ",
">.j.V.V.t.t.s.1.#.-.] Q ~ E E I ! %.! E T T P T ! P S Z A J A N V V B M C x h h g g u f j j f j x h g j j h h B A D M h M B L P ",
" . .) P I X.,.Y @.#.@.$.#.] ] ! P S P ~ Q ! %.c.E T ! ~ Q ~ I ~ ] ~ P S D D P P R Y T T S C K ^ U U U E E U $.( U P L  .t.s.g.^ ",
"N J V H U I L L U P P L P P Y b P V P ,.` ` ,.) P Y ~ Y Y U L E P U G j j x.Q ) s./ / J M P G.P A P L Y E ~ H M M V I s.L L P M ",
"J Q Y Q Y Y P I G S S P F F V b ` B Y ) U U U U Y P P P L F S A Z S P p 0 F.P A S j B M m U :.h M M B N x C M M g j %.I m M Z s ",
"F.>.Y Y Y Y U P P P U P A P A B Y F Y I Y I I Y P P U E U G S S D K I f 6 H.) j N A D S Z A Z S D D P B A S Z K M V >.L Z Z S C ",
"Q Y ) Q Y I P P U G G G F P P h Y Y U I ) Y U Y U P U U P F G P K J P f i H.M q Z K v C S N J S D K S x M B N K M M X.U Z D Z C ",
"L ( ( U Y U U U P G P P P U P s I P U I Y P P U P L Y U P S L S S D T u q G.x x P D Z S S Z U S K Z B S M N J P g M :.P A Z S Z ",
"Y U U ( ~ Y Y P P U P G K E S 0 ~ I T Y Y Y I U I U P P F F L S K J E y y F.S N S Z S S S S S L F S F A B S Z S M M / D B B A Z ",
"P P G U E E U U U P G P K U B s / L ! E P Y E U P L L P P P S P K Z T 0 y F.K M K A D P S S F S P D S D S S Z K j h / S B Z A M ",
"S F G G U U U G U G P G P P V B X.P E Y P Y U Y U J P P L S S J J J T 3 d z.P Z S S S D S S S L P D S D A A A P j d $.P A Z Z C ",
"L P P E E ( ( $.( E E U U U F G #.I ! Q E ! / / I I I E T ~ S J I I M ; B s.P Z S S P J J K P P P L L L Y ! U T p m U P F S D S ",
"M P P P P P U U F D G S A S B S Y J N z g a a 0 6 e 0 t 7 : % p e & % 4 A j./ P Q Y Q Y J I Y L L L P V L P g g 6 S U S x M x Z ",
"b B B b g d i 0 6 0 w p a h B Y J Z c x c z z d z M z a 0 9 a M d a x C S ) a 0 t t 7 2 - 5 - $ - - : : 4 $ O : q S m t 9 q 0 u ",
"( ( U ( @./ ) Y ] ) { -.%.g.#.Y P I #.| / $./ 5.q.#./ #.-./ ! Q ! ! U S U F M M h d j h d M N j V V B h P U P U L A S S G G P P ",
"E U L c.U P L V -.E ) Y H V m m N J L L V S L Y M S L P Y L L Y T G U U P F T ~ I E ~ S E $.T T P U A U 2.G P L G U ~ P S E G G ",
"Y U ] $.j L F S I P L P V V L L P Y P P P P U L V P S L L L F Y G G F A L S A B S A N M S M p b d L L P A M A A F F A M B G S Z ",
"I Y ( U i F #.P I U Y ) ) Y I U P P I U L S I P E Y U U P E Y P P P G G U P P F S S K P K A s n F U L F F F F P A F F A D G D M ",
"I ~ Y U i S Q S ~ E Y P ) Y I I L I Y Y L P Y Y U U P I U I L P U P P G P U U F G G L S P j p P T P P P A F F F P P A S A G A M ",
"T Y Y U i L Y J ) Y Y U Q E Y J P Y P P P Y Y P U U L U P P P Y U P G S P U G F A V A A E s b Y S U G G P P S D P S A S A G F B ",
"U U Y I i J #.I I I I Y P P U J I Y P L P Y P P A L I U P P ~ Y P G F S G F F S M A U L Y h B Y F P G U U F B G P G S D P F V M ",
"P U I L w S X.I Y I Y Y I I I P I I P I Y P L S V Y ) Y U U U P F G A A S S A A S F U G G p M E P P P G K A G T G A K S P p h J ",
"K S I L i P  .I Y Y I U I P P P U P Y P L S P P Y Y P P L L J S F D A N Z B V S P F G F S s M Y P G G P P S S D B A S Z S b S Z ",
"T R ~ P d Y %.#.,. ./ / / -.! ! %.%.#.~ E %.%.Q 5.Y J #.R T P S D A B Z S S P T F A F S F s B -.G Y Y ~ P F P P S S J V A P A j ",
"z C C x g / Y H N V V N Z z z z a a z z v Z z I V v N N N C N z j x M M K ^ T G S D P G A n U | P ( U U F P D S J P P P P P D Z ",
"1 3 4 y x N p e 9 2 2 2 : & : % + % & & & X + & . . + % & = ; : 0 t g j h q > 2 9 a t 0 a M Z y p 7 0 > 6 2 > 4 3 3 0 9 7 8 q y ",
"%.y.%.:./ Y Y E E U I P I P K Z N Z N Z x x C h x c N N Z x x Z S S Z J M h M x j g a d M Z s s m M n n g s d a d j p i p d h h ",
"Y I Y Q Y Q ) Y Q #.#.$.Q #.] U I P ~ ( ( 2.o.{ <.@. .` ,.X.0.<.~ I g.~ / g.I Y ` ( 2.] [ [ ] ` ` <.,.U X.5.Q @.s.-.,.i.k.#.~ P ",
"N V Z S J J L L S J S S N I A j h s L S L P P F L P P U P P L A x E V 3 / Y 0 V b M A B S P S A A V B B Y F J P M b  .U B B M m ",
"I P K K P P I P J P K J P / N u a M T J U U P U L L Y Y P L L U U U q t / h p T S S A S S Z S S P A A P V A S J q h @.S n M B x ",
"K K P I P P J J I P J P J E Z 0 h J ~ Y E P U U P P Y Y I P P Y P L Y h S A V U K P S S P S G P F F P L S S J L s M Q S B N Z M ",
"K P P P J J P I I J P K J Q Z 8 Z L I I P P Y U U Y Y P P U P P P Y Q 8 M $.U S P P S S K D A P L P V S S F S P g j  .A A A M M ",
"I K P P P P J P P J J J L ! B 6 Z K Y U P ~ I Y P U P L P P P F P U %.8 g %.L S T K D D S D P G P A S U F A A I h d / P B M A Z ",
"K I Y P J P I J J J J P I #.m 3 B K I U T U P Y P P P U P L L G L I ! 5 d :.J S K K P D D K D S F F A L S A N P h s P L M M A x ",
"I I L J I J J I P L P P I #.M 9 S P ~ U I U Y U P P Y U P P P P L U / 7 g #.P L K P K P S D D D A B F F A S A P n s P S B C M x ",
"K I K I P J P J H P P P L / y 0 P U Y #.g./ Y I U I ) P P P U L S P #.5 s :.U A S P P K P K S K L S P S S J S K p M P B B B M C ",
"R ^ ^ ^ ^ Y Y Q I I ! P I y.7 d ~ E t.F.) m M  .1.X.) Y Y / I ) ~ ] Y 6 L z.S P Q E P U ~ E P T U P S K K K P x s ! S x A A Z Z ",
"g u e e B h j m z M N j m j 3 A P N A s 3 : 2 7 0 - $ - < % X - = - = > c g u g h d z M v d c h t g z g h a y 9 x S z e g h M x ",
"P J N L M d M M M M h m M j M S j p a p y y e 7 2 6 0 e 7 0 i 7 7 8 7 g x q d d g c z y e 7 0 : - 3 2 : 2 < 2 g x 6 0 7 p g h f ",
"E Y N.] I / / Y ~ Y P U ~ ~ ~ P U ] 2.$.9.v.3.2.-.Y Y 5.N.g.@.s.h.N.s.G.q.P s.k.y.! R P ~ R I ~ E I U U R I I R I S K E G U E S ",
"M S E V J / P J U L L S V A F B U { P F P G G E G h J #.#.L V Y Y P P P m V P L D B A S S P E L S S P J S B Z P U S J A M S S x ",
"J P P L L Y I P U P U U P U U F L Y F G F A S P M d q.Y J S S J L F A S P K S Z Z Z S S S K J S J J S S N S K J S S S D D Z Z C ",
"S P P K J P P P P K P P G F Y L P ~ P G P G A P L d ! U P P U U G P P L A S P K K Z S S Z S S K K S J K A K J C S K K K S S A Z ",
"K P K K S P P K S S D P F P P S T [ S A G S F U P e ~ Q U P P P P G P S S P S A S A Z A S A A J K S S D S S Z Z K J J Z Z S S Z ",
"K K D S S K P D S D P S U P G P U P A F P P G P B 0 ^ Q P L P P U P P F F P S S S S J S S J P J K P D S S Z D Z S Z K S Z S S C ",
"K K S K P T P P S K P P G F P G S A A P G P P G S d ~ Y I Y P U U P F G S S S Z Z A P S S S K K P D S S D Z S S S S D S S Z S Z ",
"K D D D D S K P P K B A G P S S G S S P F G G F S a Q ) U P P Y P F G S A A S A S K A A A S J S K S S S S S A A Z S S J K K K Z ",
"Z D S S K S P K D D Z P S D A P P B S P U P S S S p U ) U Y Y U P P K S S Z S S S J S A Z J D S J S S S S Z A Z S M S S S K K Z ",
"K T P T T Y E P K T R P G P P T K D U E E P P U M 0 ^ ! L U P U ~ E E U P D U U P P P P Z A T P P T P U P K S P S D K T K K K Z ",
"9 q q 0 a y a a j x x h x x x j h M j j A A N S j g $.M f g h h j g g y g h x x j j c Z x B M z x h f x h g h y y g g f f j v M ",
"x v x x h h g g a y q 8 9 9 9 0 q 0 0 u e 9 0 e p g Z y j B h g y 0 9 9 0 9 0 q y a g a a y 4 9 0 4 3 0 q u 1 % 4 1 1 4 u g r r "
};
