/* XPM */
static char *_a1bf29e65bb46d4ffb4b67fe10dcb00616ojlvGVoFuWiic[] = {
/* columns rows colors chars-per-pixel */
"64 64 99 2 ",
"   c None",
".  c #AE7C2D",
"X  c #B17E2D",
"o  c #B4812E",
"O  c #BA862D",
"+  c #BE892E",
"@  c #B98632",
"#  c #BC8A35",
"$  c #BE8C38",
"%  c #C38D2F",
"&  c #C6912F",
"*  c #C38E32",
"=  c #C08F39",
"-  c #C69030",
";  c #C89130",
":  c #C6953D",
">  c #C8973F",
",  c #C69541",
"<  c #C89740",
"1  c #C79844",
"2  c #C99943",
"3  c #CC9E4A",
"4  c #CFA04B",
"5  c #D1A34D",
"6  c #CFA352",
"7  c #D5A650",
"8  c #D6A952",
"9  c #DBAD55",
"0  c #D6AD5D",
"q  c #D9AC5B",
"w  c #DFB157",
"e  c #DEB15A",
"r  c #DEB15B",
"t  c #DDB059",
"y  c #DFB35E",
"u  c #E2B356",
"i  c #E1B358",
"p  c #E2B55B",
"a  c #E3B65B",
"s  c #E0B35D",
"d  c #E2B65F",
"f  c #E5B85D",
"g  c #E4B85F",
"h  c #D9B162",
"j  c #DCB262",
"k  c #DCB363",
"l  c #DFB86A",
"z  c #E1B660",
"x  c #E0B661",
"c  c #E0B764",
"v  c #E6B960",
"b  c #E6B961",
"n  c #E2BA65",
"m  c #E3BA67",
"M  c #E4BB64",
"N  c #E7BD67",
"B  c #E1B869",
"V  c #E4BC6A",
"C  c #E5BE6B",
"Z  c #E1BA6C",
"A  c #E5BD6F",
"S  c #E7BF70",
"D  c #E6C06F",
"F  c #EAC06C",
"G  c #EAC06D",
"H  c #E8C16E",
"J  c #EAC26F",
"K  c #E6C070",
"L  c #E6C072",
"P  c #E7C172",
"I  c #E8C273",
"U  c #E8C373",
"Y  c #E9C374",
"T  c #E9C375",
"R  c #EBC477",
"E  c #ECC675",
"W  c #EBC578",
"Q  c #ECC779",
"!  c #ECC77A",
"~  c #ECC97A",
"^  c #ECC87B",
"/  c #EDC87B",
"(  c #EDC97D",
")  c #EDCA7D",
"_  c #EFCA7C",
"`  c #EDCA7E",
"'  c #EECA7F",
"]  c #EECB7F",
"[  c #EFCB80",
"{  c #F0CD81",
"}  c #F0CC82",
"|  c #F1CD82",
" . c #F2CD82",
".. c #F0CE84",
"X. c #F2CF86",
"o. c #F1D086",
"O. c #F2D086",
"+. c #F2D186",
"@. c #F4D286",
/* pixels */
"                                                                                                                                ",
"                                                                                                                                ",
"                                                                                                                                ",
"                                                                                                                                ",
"                                                                                                                                ",
"                                                                                                                                ",
"                                                                                                                                ",
"                                                                                                                                ",
"                                                                                                                                ",
"                                                                                                                                ",
"                                                                                                                                ",
"                                                                                                                                ",
"                                                                                                                                ",
"                                                                                                                                ",
"                                                                                                                                ",
"                                                                                                                                ",
"                                                                                                                                ",
"                                                                                                                                ",
"                                                                                                                                ",
"                                                                                                                                ",
"                                                                                                                                ",
"                                                                                                                                ",
"                                                                                                                                ",
"                                                                                                                                ",
"                                                                                                                                ",
"                                                                                                                                ",
"                                                  q 8 i r n ' O.O.U N n _                                                       ",
"                      1 n ' O.{ I e 8 8 8 7 9 9 e d N G _ O.O.{ A f f f w d x G K { @.O.                                        ",
"                      * + + $ 3 j Y { E G b u p G { O.O.' r 9 w r r k V D T T ' [ [ _ S Z B k 0 7                               ",
"                      ; & & ; ; + + + 2 7 K T ' ! ! E A l h 0 0 0 8 7 3 3 1 3 4 3 5 3 3 5 7 9 9 9                               ",
"                      ; * & % % ; * & & * % # 3 3 4 5 5 5 8 9 9 9 9 9 9 9 9 9 9 9 9 9 9 9 9 9 9 9                               ",
"                      + % % ; ; ; & & * % % : 9 9 9 9 9 9 9 9 9 9 9 9 9 9 9 9 9 9 9 9 9 9 9 9 9 9                               ",
"                      & O O . O + & & & ; % : 9 9 9 9 9 9 9 9 9 9 9 9 9 9 8 9 9 9 8 5 3 3 3 5 3 1                               ",
"                      * % % . . . . X + % ; > 9 9 9 9 9 9 7 5 3 2 2 2 : : @ - $ O + % % + < 9 9 9                               ",
"                      ; % % O . o . . . . + $ 4 5 1 , 4 5 , + O - - + - - O ; - + % & & O < 9 9 9                               ",
"                      & O % % . o . . . X % : 9 9 9 4 9 9 9 < + - - + ; - O - - % & * & O < 9 9 w                               ",
"                      ; o % % . o . . . o & : 9 9 9 5 9 9 9 9 : % ; % % - O * & + ; % * O < 9 9 9                               ",
"                      - o o & O o . . . X % > 9 9 9 , 7 9 9 9 9 : % + & - O - & + ; ; ; O < 9 9 9                               ",
"                      ; O . & * X . . . X & : 9 9 9 , * 8 9 9 9 9 < + & % O * & + % * ; O < 9 9 9                               ",
"                      & o . % % @ . . . X ; > 9 9 9 : # * 8 9 9 9 9 > * & O & & + ; & ; O < 9 9 9                               ",
"                      ; O . O ; # . . . X & : 9 9 9 > + ; # 5 9 9 9 9 : - O - - % - - - % < 9 9 9                               ",
"                      ; O . X * ; X . . X & > 9 9 9 > + ; ; $ 7 9 9 9 9 : O - - O * - - O < 9 9 9                               ",
"                      ; @ X . + ; O . . X * > 9 9 9 > O % % % @ 7 9 9 9 9 @ - - % - - - O < 9 9 9                               ",
"                      * O X . @ * % . . o & : 9 9 9 > O ; ; % + = 7 9 9 9 9 * - O - - - O < 9 9 9                               ",
"                      ; # . . X - - X X X & > 9 9 9 > % - - % % % = 7 9 9 9 9 : % % - - O > 9 9 9                               ",
"                      ; O . . . % * O . X & > 9 9 9 > O - % % O - - # 5 9 9 9 9 @ - - - O > 9 9 9                               ",
"                      ; + X . . o % % X X & : 9 9 9 : % - - % O - - % * 7 9 9 9 9 = - - O > 9 9 9                               ",
"                      ; + X X X o % & o X % > 9 9 9 > O - - % % - - O - * 5 9 9 9 8 = - O > 9 9 9                               ",
"                      % % . . X o # - % X % : 9 9 9 > O - - % O - - % - - @ 7 9 9 9 7 # O < 9 9 9                               ",
"                      ; % . . . X X - * X - > 9 9 9 > + - - % O - - O - - O * 7 9 9 9 9 # < 9 9 w                               ",
"                      + X . X . o . * & O - > 9 9 9 > + - - % % - - O - - O - = 7 9 9 9 8 2 9 9 9                               ",
"                        * O . X X X O & % % > 9 9 9 > O - - % O - - % - - O - - = 7 9 9 9 4 9 9 9                               ",
"                        - - % X X . X * + ; : 9 9 9 > % % - - O - - % % - O - - % % 7 8 9 3 9 7 5                               ",
"                        - - - - + . . % + ; : 9 9 9 2 O - - % O - - % - - O - - O % $ 3 5 3 1 5 9                               ",
"                          ; - - & % o O + * > 9 9 9 2 O - - * O - - O O = = = 2 3 7 9 9 9 9 9 9 w                               ",
"                              - * ; & & o & : 9 9 9 > % % O * = < 2 5 7 9 9 9 9 9 9 9 9 9 9 9 9 9                               ",
"                                ; ; * * & O : 1 2 5 3 2 8 9 9 9 9 9 9 9 9 9 9 9 9 9 9 9 9 9 9 w                                 ",
"                                  ; & & & % : 9 9 9 9 9 9 9 9 9 9 9 9 9 9 9 9 9 9 w                                             ",
"                                      ; & % > 9 9 9 9 9 9 9 9 9 9 9 w 9 w                                                       ",
"                                        ; ; : 9 9 9 9 9 9 9 9                                                                   ",
"                                            > 9 9                                                                               ",
"                                                                                                                                ",
"                                                                                                                                ",
"                                                                                                                                "
};
