/* XPM */
static char *_19c47d0832c4167c0ba78069d1f7f49oF60aKAvmeG6dqFx[] = {
/* columns rows colors chars-per-pixel */
"64 64 256 2 ",
"   c #110F16",
".  c #292625",
"X  c #33322E",
"o  c #2A201D",
"O  c #6B2D16",
"+  c #472F2F",
"@  c #672A19",
"#  c #764A18",
"$  c #544A37",
"%  c #6D5332",
"&  c #726235",
"*  c #3A5855",
"=  c #565649",
"-  c #515149",
";  c #675945",
":  c #695B53",
">  c #56714E",
",  c #686758",
"<  c #78775C",
"1  c #706C50",
"2  c #475C66",
"3  c #506770",
"4  c #7A7967",
"5  c #706E6D",
"6  c #685A7A",
"7  c #763B49",
"8  c #8B3316",
"9  c #971E18",
"0  c #8E5114",
"q  c #A56718",
"w  c #9A7838",
"e  c #916C30",
"r  c #A47A38",
"t  c #AC762A",
"y  c #985C24",
"u  c #8E724F",
"i  c #A77B4E",
"p  c #847969",
"a  c #8F796C",
"s  c #A87473",
"d  c #904F4A",
"f  c #833A4D",
"g  c #5C8155",
"h  c #7B8667",
"j  c #72886D",
"k  c #688E5E",
"l  c #B28B34",
"z  c #9C803D",
"x  c #D5AB38",
"c  c #D5A930",
"v  c #CD9A19",
"b  c #F9CA05",
"n  c #DFC42F",
"m  c #9A875B",
"M  c #908A54",
"N  c #A68843",
"B  c #A58658",
"V  c #B2914F",
"C  c #B9A256",
"Z  c #85846A",
"A  c #968869",
"S  c #898A76",
"D  c #958A75",
"F  c #8C9677",
"G  c #95987A",
"H  c #92996C",
"J  c #A48B6A",
"K  c #A59569",
"L  c #A79978",
"P  c #B19472",
"I  c #9BA375",
"U  c #9AA379",
"Y  c #97A26A",
"T  c #A4A67D",
"R  c #B7A979",
"E  c #B3AF70",
"W  c #CDAC4F",
"Q  c #C9B87A",
"!  c #CFB070",
"~  c #D7A26C",
"^  c #F1CC4E",
"/  c #D9C47A",
"(  c #D9C96C",
")  c #E9D070",
"_  c #F3DB65",
"`  c #B6C177",
"'  c #366898",
"]  c #735B8D",
"[  c #4E7791",
"{  c #78688A",
"}  c #54719F",
"|  c #8C758E",
" . c #A07892",
".. c #56829C",
"X. c #788A8F",
"o. c #5188AA",
"O. c #73A6B2",
"+. c #6C9BA9",
"@. c #579ACB",
"#. c #6CA9C8",
"$. c #969784",
"%. c #8C948F",
"&. c #A59B86",
"*. c #AF9B8B",
"=. c #9AA58A",
"-. c #97A89B",
";. c #99B889",
":. c #A8A688",
">. c #B6AA89",
",. c #BAB489",
"<. c #AAA996",
"1. c #B4AB97",
"2. c #BCBA9B",
"3. c #B9B597",
"4. c #ABB38F",
"5. c #91AEAC",
"6. c #BCBBA3",
"7. c #B7B9A7",
"8. c #ADB2A9",
"9. c #CB9593",
"0. c #C5B688",
"q. c #C2BD9C",
"w. c #C7BA97",
"e. c #D2B08E",
"r. c #C3BDA3",
"t. c #C8BBA8",
"y. c #D6BAA7",
"u. c #C4B9B3",
"i. c #D0BFB2",
"p. c #DEAB94",
"a. c #B4C898",
"s. c #BAC5A8",
"d. c #A5C6BA",
"f. c #B8C7B5",
"g. c #B2CEAE",
"h. c #9BC2AC",
"j. c #D7C789",
"k. c #C9C49C",
"l. c #D6C998",
"z. c #D6C98E",
"x. c #E2CD87",
"c. c #E4D39D",
"v. c #E8D698",
"b. c #F1DB9A",
"n. c #E7CF8F",
"m. c #F6E599",
"M. c #C4C2A3",
"N. c #CBC4A4",
"B. c #CDCBA3",
"V. c #C4C3AB",
"C. c #CBC6AB",
"Z. c #CCCBAC",
"A. c #C3C8AB",
"S. c #D3CBA4",
"D. c #D3CCAB",
"F. c #D7C9A6",
"G. c #DCD2AB",
"H. c #D9D2A8",
"J. c #CCCCB3",
"K. c #C7C9B6",
"L. c #D3CDB3",
"P. c #D6CAB6",
"I. c #CAD3B9",
"U. c #D4D2B4",
"Y. c #DCD5B4",
"T. c #D4D4BB",
"R. c #DAD5BB",
"E. c #DDDBBC",
"W. c #DAD9B6",
"Q. c #C5D5AB",
"!. c #E2CBA3",
"~. c #E4D5A4",
"^. c #EBDAA4",
"/. c #E2D4AC",
"(. c #E4D9AD",
"). c #ECDBAB",
"_. c #E8D7A7",
"`. c #F2DCA9",
"'. c #E2D6B4",
"]. c #E4DBB4",
"[. c #EBDCB3",
"{. c #E4DCBB",
"}. c #EBDEBC",
"|. c #E5D5B8",
" X c #F1DDB4",
".X c #E3CAB3",
"XX c #DDE1BD",
"oX c #EDE0AC",
"OX c #F4E3AB",
"+X c #FAE7AB",
"@X c #ECE1B4",
"#X c #ECE2BC",
"$X c #E5E2B9",
"%X c #F3E3B4",
"&X c #F3E4BC",
"*X c #F4E9BD",
"=X c #FBEBBC",
"-X c #FAE8B5",
";X c #FBF3BB",
":X c #8EBCC7",
">X c #9AC4C9",
",X c #90C5D6",
"<X c #A5C9CA",
"1X c #B8D3C5",
"2X c #ADCED0",
"3X c #8BC6E0",
"4X c #C8D7C8",
"5X c #D4D9C2",
"6X c #DBDBC4",
"7X c #D7D9C7",
"8X c #C9DBD2",
"9X c #D6DDD3",
"0X c #CECEC6",
"qX c #E3DCC3",
"wX c #E3DECA",
"eX c #E9DCC6",
"rX c #E8DDD3",
"tX c #F2DDD7",
"yX c #DCE4CC",
"uX c #DBE1C5",
"iX c #DCE4D3",
"pX c #DBE7D9",
"aX c #CDE2D3",
"sX c #E4E2C3",
"dX c #ECE3C3",
"fX c #E4E3CC",
"gX c #EBE3CC",
"hX c #EBEAC9",
"jX c #F2E5C3",
"kX c #F4EAC4",
"lX c #FBEDC4",
"zX c #F5EBCA",
"xX c #FBEDCA",
"cX c #F2E6CA",
"vX c #FDF2CC",
"bX c #FCF5C8",
"nX c #E3E4D3",
"mX c #ECE3D3",
"MX c #E9EAD8",
"NX c #F1E6D5",
"BX c #F3ECD4",
"VX c #F3EADB",
"CX c #F8EBD9",
"ZX c #FBF3D3",
"AX c #FBF7D8",
"SX c #EBF4D8",
"DX c #D1E8E6",
"FX c #E8ECE3",
"GX c #F5EDE4",
"HX c #ECF5E5",
"JX c #FEFDE5",
"KX c #FDFDEB",
"LX c #F8F3E6",
"PX c #FEFDF2",
"IX c #FDFDF9",
"UX c #EFF7F1",
/* pixels */
"l.c.!.~.F./.|..X/./._.!.[.[.[.}.|.|. X[.}.jX|.D.}.&X X}. X/.t.u.0._.^.[.[.).~._.[.:.R `.^.c._._.~._.).~.^.~.c.^.R K z.v.(.~.c.c.",
"b.v.^.~._.).).)._. X X X}. X XjXjXjXcXxXjXP.R.kX[.r.C.jXlXk.r.rX,. XoX-X&X@X[.oX/.:.0.+X`.).[.@X). X^.^.).).^.^.R m ,.OX(.~.c.c.",
"n.n.n.b._.).).[.[. XjX}.jX}.jXcXcXzXxX{.r.U.lX=X6.+.%.H.=Xw.0XUXr.n.^ b.dX X*X&XG.:.l.-X XOX@X X`._._.`.^.).).^.H.z.c.oX(.~.H.c.",
"^./ / _.(.).[.[.}.}.jX}. X XjXjXxXZXR.J.R.w.l.+Xr.X.%.D.-X1.eXLX0XW b ^ BXjXjX*X}.>.0.`. X). X[.).).^.`.oX@X@X).OX*XoXoX(.(.oXv.",
"/ ! j.oX[.). X[.}.jX&X X X-XjXxXZXU.K.dX`.^.w.0.~.N.l.&X'.3.rXGXH.v b b b.BX*X-X-Xq.0.+X X). X X[. X X).[.[._.).[.@X[.(.%XoXz.,.",
"( ! ! n.^.[.[.@X X}.jXjXjX}.jXxX|.K.cX&X&X=X=XG.w.l.-X=XN.6.GXNX^ v b b ^ q.1.w.-Xt.k.-X)._.`.`.^. X)._._.~.~._.@X}.%X-Xl.,.M.yX",
"b.n.! ( ( x.`.&X&X&XjX&X&XjXcX|.C.cX&XlX&X{.#XlX*XF.k.[.2.P.GXmX*Xk.( m.j.X.' %.[.D.l.OX`.).[._._.^.^._._._./.(.&X-Xl.:.h <.GXC.",
"v.) / ^.n.Q Q c. X&X X X XeXcXw.E.xX*XG.N.w.F.&XxXvX*XS.:.tXLXVXLX0Xe.-XD.} ' { &XL.l.-X^.).).`. X X).OX).).@X=XG.0.6.$.h D E ,.",
"v.j.x.OXOXoXx.0.j.!.%X&X XjXt.L.vX|.Z.H.sX{.H.F.F.}.vX/.:.5XrXVXNXrX0.b.[.3.-.M.).>.L z.).~.OX XR V V ` ^.&X!.0.q.7XUX7.:.,.5.O.",
"v.j./ b.v.~.^.(._.l.!.).jX}.7.ZX/.V.#XAXbXjXzXdX'.G.|.,.C.KXE.P.mXmX3.v.`.-X=XbX).R P l.OX X[.E l c ;.;.K ! M.7XGX9XC.9X].=.O.O.",
"z.Q ! ) x.x.c.[.[.}.[.(.xXV.R./.N.jX XP 9.bXhXgXzXvXjX:.t.nXBXqXP.rXJ.j.=X-X=X-X=X@X%X-X^.%X9.v x g.g.;., & .XpXV.L.wX7Xw.;.3X:X",
"z.Q ! / / j.n.).].}.}.lX}.r.{.N.eXZX'.9 9 ZXkXdXcXzXBXt.eX6XP.qX{.qXK.0.+X&X&X%XOX+X+XOX`.[.C v ` ;.F 5 5 $ i 6XwXT.V.6XfXL 5 5 ",
"c./ / x.n.v.j.).}.}.}.xXC.Z.P.gXxXcXzXe.e.zXgXcXcXZXR.t.NXNXNXgXeX6XP.>._.=X%X^. XOX~.v.^.[.C v T T ` j X.h e R.0XL.eX7XfXS o % ",
"v./ / b.+Xl.>.%X&X}.jX}.2.J.{.xX&XjXjXZXZX}.dXdXjXZXM.t.VXgXR.U.mXNXCX7.0.~.).-X-XOXp.9.9.9.; + G a.Y M ;.A e p K.mXP.9XUXr.% u ",
"c.) x.b.=X>.:.lX}.[.lXD.6.R.zX*X}.#XOX^.`.OX X}.dXzX<.P.CXR.U.L.Z.VXPX7Xz.l.l.oX=XOX9.9.s 9 @ X & E Y M & & H Z :.MXUXrXP u >.t.",
"b.! ,.b.lXD 0.bX&XeXjXJ.t.#XxXjX}.^.OXbXvX;Xb.%XxX{.3.wXBXU.T.6XJ.mXGXnX2.-X&X).OX`.9.9.s 9 f f e C M h 2.&.G 5XUXFXP e R u.u.1.",
"x.,.d.P.0., &XlXjXBXkX6.K.jXxX*X~.@XGXu.1.eXxX`.bXL.C.CXNX{.U.U.6XVXVXGXC.^.lXjXjX`.9. .9.a , d f = 6.7.7XnXUXFXe.w w Y.PX&. .8.",
"6.4XDX8.. P bXcXdXzXdX7.Z.lXzX).~.MX&.D *.5 0XxX+Xw.C.GXeXrXCXLXNXVXVXGXJ.!.xX`.^.z.s P 9.9.Z a +   <.J.0XGXw.i y R FX9X4 % a 8.",
"DXDX-.$ 3 s._.xXkXkXjXI.U.lXjX^.ZX<.D IXIXt.a mX`.3.eXNXNXCXu.7.LXCXmXPXwX>.!.e.l.w.*.e.`.`.w.P.4 $.J.K.*.r q N R.UXwX:.$ = @ a ",
"%.- o { DX>X<.'.vXxXjXJ.E.xXjX^.AX$.y.IXPXGXp 7Xl.3.NXgXLX6X1 ; 4 r.LXeXy.T Q 0.P P vXZX}. X=X4 o 6.9X<.*.t Q FXnXN./.lXp X p e.",
". - 5.DX2X2X>X5.G.bXzXqXsXzXxX@XxX8.a GXPX*.$.GXz.C.NXGXmX1 H uXG ; p t.LX*.R N.w.).[.l.=X#XbXk.. = wXfX:.7.HXR.k.oX@X*XD.T N., ",
"8.1X1X2X>X<X<X,X5.L.ZXxXdXdX}.{.~.NX8.A a D mX=X0.0XLXNXp F UXrXy.>.G S 1.&.3.oXbX/.C n.lXlXlX{.G h 8.KXV.1.M.[.@X$X].(.lXR.X   ",
"8X1X8.2X>X<X<X2X,X5.k.#X{.D.S.D.(.@XAX7X7XJXlX+X2.P.P.Z F LXy.9.R.IXNXA % : >.;X0.C n.=XlX(.D <.u.$.6.rXFXe C zX$X$X].(. X$X, X ",
"1Xf.1X2X>X<X<X<X<X5.5.1./.'.G.$XzXlX+XZX}.= 0.).&.L.7.< w.y.P.VXKX9.a 1.L A h p C +XlXoXlXN., 4 &.G 7.<.UXw.y y.zX'.(.'.#XAX$.+ ",
"1X1X4X2X<Xd.h.5.5.5.5.+.=.*XbXzXzXzXbXbX, X r.>.T.VX1 *.eXGXGXPXi.d U.BXPX].K Y T 3.$XZXZ.< G 5X7.$.=.=.P.PXB N sX$XG.kX#X4 $ a.",
"f.1X1Xf.g.%.-.h.d.>X>X#.#.<.@XvXjXZX#XG $.E.JXr.P.D w.CXPXLXtXwXJ G fXVXN.R S._.;XR :.A.: T *X<.- *.7.$.<.:X5.e z.#XzXD.: , G.&X",
"g.Q.s.4.;.5.>X<X>Xd.>X>X#.#.5.G.bXZXp . J.JXl.&.A 1.PXGXtXy.y.y.s a dX0.0.jXVXq.,.c.+Xp , SXJXS   : , 5 2 [ @.o.%.zX:.$ A *XjX'.",
"E a.,.;.h.2X2X<X<X>X:X,X,X3X3Xd.].L.$.<.AX[.0.&.<.GXGXtXe.G.GXdX3.1.w.l.BXLXlXP * h ~ ~ z.K w.$X:.7X5 * 2 ' @.@.+.4 - >.;X{.eXU.",
"4.4.a.a.a.>X<X<X>X>X>X>X>X2X2X1X5 , U.AXkXbXs.S rXVXtXy.y.PXqXC.R.eXmXGXLXy.e # > 4 y e._.n.P 0.U.r.%.' [ 3 } @.3 = S.vX{.|.].N.",
"g.Q.g.a.g.h.d.>X>X>X>X<X2X<X= $ . - I.dX#XxXD u.GXtXVXy.eXgXL.wX<.$.t.R.D , %.X.$ < j k.-Xm.n.e./.w.O...[ [ 3 3 o.5 ! zX].E.Y.'.",
"Q.Q.g.a.g.g.g.d.d.h.d.2X1XF X 1.$.1X1X3.kX,.$.NXrXmXGXP.1.R.NXVXwXK.i u @ *.PXPX*.$ > j 7.9Xv.n.!.oXX.@...3 = 3 @.-.r l.{./.'.F.",
"c.H.oXW.a.` g.g.B.Q.Q.h.g.<.5 C.8XaXg.d.<.Z i.GXrXtXVXwXw.rXGXLXtXP q y >. Xt.*.KX<.* =.4 { MXn.l.;X(...2 2 [ ' O.KXP B @X/.(.k.",
"D.=.=.D.>.. M &XmXGXR.L <.- X h.pX1Xf.1X8.$.P.tXrXrXrXrXgXNXHXk.i q 0 y W.KXK.G GXu.* ;.1.%.mXv.F.vXp.O %.X.[ 5 u AX6Xi 0.$XG._.",
":.J.T.:.-   . %.HXI.<.L.p . -.HXaX4X1Xs.f.7.7.Z.tXVXrXFXLXwXR e e t l # 5 SXJXKXp.; > > > =.b.+X*.; @ K hXZXN R e &.KX0.B sX'.G.",
"= LXKX3.q.=   . 4 r.t.t.C.-.pXaX1X8X1X4Xf.f.yXg.u.rXGXGXP.B q z z z t q $ X.K.2X, % j > g g a.e.8 # F h , :.P i 0.u uXBXm 0.$XG.",
"o p *.X w.vX-   , 7.J.R.8.8XaX8X8X8X8XaX8.s.pXuXK.K.FX0.e e z z r r w r q # % 7 # w ;.k g k , 8 B kXAX#X2.< 4 $ p u D KX/.K {.G.",
"X o -     3.N.- 7Xu J f.1XpX8X8X8XaX4XaX7.I.7XuXnX4.u e l z r e e e e w r t q q q q % H k & O 1 ZXkX{.jXAXdXU.K.% ; $ a 6.P w.lX",
". = eX%.  . , - < 0 u 1XpX8X8XaX5X4X8X5Xf.uXyXhXB.V e e & % % $ & u N N N N l z V N 1 k 0 8 & k B.hX].@X#XdXN.BX,.K >.$ Z , : ,.",
"4 $.zXJX%.= 7.: 3.M 7.DX8X4X8X5XuXiXHXuXV.E.2.:.D A Z < = p 7.6XE.E.wXqXqXqXuXW.L.AXe.O y / $XY.G.$X{.{.$X#XH.2.hXK 0.>.w.sXD ; ",
"-.+.-.P.$.F 4 o S 8XpX8XaXpXpXyXT.A.1.Z 5 1 4 F G T D m m t.CXGXmXVXNXVXmXVXVXAXf.s 8 B zX_ ) BX&X$X@X].@X].#Xk.T.G.K M.A kXlXT ",
"+.,XO.F h > G - -.HXyXI.6.&.D p 1 h G S 3.w.0.P B m L 3.uXfXI.5XrXeXNXgXeXwXAXmXu @ A E.#X{.n ( qX}.{.'.].{.{.{.2.eX>.>.3.L gXC.",
"5.+.-.AXk.A w.$.:.Z 4 1 < Z G 2.uXhXG.&.J J J *.s.uXSXHXnXyXfXI.6XrXmXNXNXJXP.- ; |.<.D _.dX].n ) dXqX{.{.#X{.dXH.2.qXL N.:.N.sX",
"{.4 D D ; ; + 4 h G 3.H.hXvXlXl.P i u A 2.T.SXHXnX{.H.W.uXyXyXuXuXhXmXNXAX<.X Z NXAX{.4 >.=XsXv.n / sX}.#X{.#XsXdX2.T.D.L L.1.'.",
", , - , 4 p B.XXbXAX;Xc.0.J u : p $.S V.JXnXsXS.z.(.(.H.l.W.nXfXsXe.p.p.K + p AXdX|.&XN.1 3.$XP.) x.}.#XqX#XqXqXdX].2.}.4.3.K.N.",
"Z.6.:.SXB.^.bX@Xw.P B J P A 8.VXKXKXf.<.k.hXB.z.hXVXGXHXhXz.N.'.! n.P.Z , 2.p.p.dXG.Z.BX7.F 7XMXI.dXdX{.eX#X{.{.qXdXB.M.E.:.L.D.",
"C.1.SXC.0.0.K u m &.N.hXU.K.JXGXLXmXV.LX<.k.z.MXFXhXmXBXUXBXR ! y.0X< < s.PXGX~ l.U.MXPX7Xf.$.rXSXU.dX{.$X{.].{.E.].{.3.D.C.3.|.",
"p V.6.u J A >.G.kXbXAXdX3.SXKXVXPX6XJ.PX9X:.lXPXGXGXGXLXLXIXN.i >.< < A.KXLXIX|.P rXKXLXmX7XfX$.nXsX|.dX{.{.{.{.{.].}.G.1.].2.V.",
"D ; % J >.B.S.k.S.k.l.0.:.wXR.R.gX<.K.MXP.D J.iXsX7X6X6XfXKX1.$ < S :.7XwX5XnXqXi R.mXrXrX<.fXV.D K.D.H.S.D.D.D.D.D.L.sXk.2.R.3.",
"r.>.l.oXc.H.H.H.H.l.S.S.S.l.k.B.B.>.S.2.,.,.>.:.k.H.S.(.H.D = F S G U.U.K.Z.W.6.:.K.J.J.U.1.3.E.2.p 3.B.2.2.2.6.3.2.3.,./.4.D.N.",
"1.{.;X+X+X;X;XbX*X*XhXzX*X$X@XhXG.w.S.G.zXxXoXH.k.H.bXoX< 5 4.:.4.U.U.gX#XlXY.G 2.dXdXdXhXF.2.zXlXB.G $XlX@X#X#XhXMXx.c _.L.4.|.",
"B.*X+X+X+X+X+XOX-X=XzXkX$X$X$X$Xk.:./.zXeX].].$X(.F.B.Z h yX=.F W.SXL.Z.jXG.G 4.}.].'.].].'.3.`.*X*Xk.D ].*X).{.fXc.c c z.gX3.w.",
"{.@X%XOX+XOXOX=X%X-X*X*X#X#XG.@X,.3.zXsXE.W.{.sXOXL > s.MX4.Z J.gXwXfXR.L.G >.[.[./.'.'.].kXw.w.].%XkX,.D }.dXsXH.W n c ! qX(.:.",
"[.@X%X%X&X%X%XkX&X&XzXxXZX{.E.].T r.zXsXuXE.XXhX4.- -.SX1.=.3.T.fXqXhXT.G 4.dX].G.G.|.Y.}.P.| { | 8.].lX3.D gX].x c x c W W.$XS.",
"].[.@X@X}.%X&XjX*XbXAXZXD.Z.dX/.3.G.sX6X6X6XuXyXI.I.nX7.=.I.A.U.fXW.U.$.G U.dX{.'.{.{.#X5X .] { ] ] <.=XlXr.D W c x x c W c.{.(.",
"'.[.@XjX&X&XjXjXxXAXqXr.L.BXAXr.k.$XE.{.XXuXyXyXiXiXs.=.I.FXf.Z.W.Z.=.$.5XE.V.R.U.B.N.Z.*.] | 6 | ] | w.F.T.M e x x c x x z.sXG.",
"].#X&XjX&X&XjXBXzXC.r.dXAXZXZXr.H.zXfXuXsXyXyXpXpXiXI.K.pXFXK.Z.W.<.$.T.uX5XE.V.A.L.A.L.*.6 | 6 ] ] { s.N.W c w e c l e y B M./.",
"{.jXjXkXdXBXZXW.2.L.hXW.S.B.k.&.q.N.A.U.uXiXpXpXFXpXFXMXpXMX4XZ.<.G Q.yXT.I.6XU.R.VXSXAX6X| ] { | ] -.zXqXx.^ ^ u # 0 # 0 e H U ",
"qXdXhXhXZXzXZ.Z.sXZX'.Y.$X#XC.4.I.Q.I.T.uXiXpXpXpXpXpXpXpXpXK.G F Q.yXT.T.T.I.T.T.nXfXwXmX7.| ] 6 %.P.sX].wXwXc.K $ # q 0 0 H U ",
"{.gXCXBXR.Z.^.m.m.) Q $XeXjXN.A.XXXXuXXXXXsXyXyXpXpXpXpXpXpX%.h K.uX5XT.T.5XuXT.J.qXfXqX6XgX6Xu.-.i.cXY.E.{.mXf.I T h 1 e y M U ",
"6XAXhXM.7.m._ ( W W ^ / D.U.4.2.S.Q.U.E.uXsXsXiXpXFXpXiXpX7.< s.nX5XT.T.5XE.L.B.k.Z.G.uXwX6XdXBXE.t.dXE.Y.E.].4.Y U U h =.I Y T ",
"mXqX2.J.+X_ %.[ } %./ ^ m.VXJ.uXiXiXnXMXMXnXpXyXpXpXiXyXs.j =.4XyXT.T.5XT.B.U.U.5XR.S.Z.qXR.R.{.R.2.{.{.Y.E.R.T I I I I F U U U ",
"r.2.nXAX_ F ' ' o.} %.^ _ ].J.nX7XiXiXnXpXpXiXiXpXaXpX7X%.4.8.I.yXT.U.5Xk.U.uX5XR.6X6XB.B.qX{.E.eXN.D.qXE.{.qX:.Y I I U U U U U ",
"V.mXFX=X) ..' o.} o.o.Q _ H.7XiX7XyXyXiXpXiXiXiXaX7XaX7XI.I.7.I.yXuX7XA.B.7XT.T.T.5X6XuXk.R.eX].dXC.r.{.W.E.sX2.Y I I I U I U I ",
"7X9XiX^.C [ o...o.' ..0.^ x.5XT.I.4X5X7X4X4X5X4X4X4X4XI.4XQ.8.4X5XT.5Xk.C.L.L.U.U.T.T.qXD.2.q.k.k.q.:.r.k.2.M.3.F H Y I I I I I "
};
