/* XPM */
static char *f339781656bb4f4a9f04d4b6028c0dbaT59lvGGZ7y3CJbjx[] = {
/* columns rows colors chars-per-pixel */
"64 64 255 2 ",
"   c #010102",
".  c #080508",
"X  c #0E1010",
"o  c #3D0000",
"O  c #350A07",
"+  c #260A09",
"@  c #103403",
"#  c #192131",
"$  c #450400",
"%  c #4A0900",
"&  c #4D140C",
"*  c #55160C",
"=  c #551D12",
"-  c #581C12",
";  c #4A130C",
":  c #651610",
">  c #572114",
",  c #4E382C",
"<  c #653E39",
"1  c #2E5117",
"2  c #274818",
"3  c #484E31",
"4  c #69423C",
"5  c #5E6D38",
"6  c #25335E",
"7  c #513D69",
"8  c #3B524D",
"9  c #394F4C",
"0  c #3A4E67",
"q  c #465C58",
"w  c #505654",
"e  c #6A4A42",
"r  c #6D5754",
"t  c #73554E",
"y  c #53635E",
"u  c #4E665C",
"i  c #7D7D40",
"p  c #5B4376",
"a  c #534F76",
"s  c #64487B",
"d  c #4C6766",
"f  c #536564",
"g  c #546B6C",
"h  c #586A6B",
"j  c #566E74",
"k  c #587275",
"l  c #517070",
"z  c #6C7A7A",
"x  c #6F7774",
"c  c #BB0100",
"v  c #BE0900",
"b  c #B81509",
"n  c #AB261B",
"m  c #B82617",
"M  c #B5301C",
"N  c #A81825",
"B  c #B82E22",
"V  c #BA3327",
"C  c #B13429",
"Z  c #9C2821",
"A  c #C40100",
"S  c #CC0200",
"D  c #CC0C03",
"F  c #C70D09",
"G  c #D30200",
"H  c #D30C03",
"J  c #DB0B03",
"K  c #D80705",
"L  c #CC1304",
"P  c #C91608",
"I  c #D41404",
"U  c #DA1405",
"Y  c #D31B05",
"T  c #D21509",
"R  c #DA160A",
"E  c #D41C0A",
"W  c #DA1B0A",
"Q  c #DB1B05",
"!  c #C31B11",
"~  c #E40D00",
"^  c #E50700",
"/  c #E81401",
"(  c #F51807",
")  c #CB230C",
"_  c #D62309",
"`  c #C72813",
"'  c #D82814",
"]  c #D03317",
"[  c #C43429",
"{  c #C93028",
"}  c #E82108",
"|  c #AC4839",
" . c #C34830",
".. c #D86D3D",
"X. c #CF6C3C",
"o. c #89544B",
"O. c #817E43",
"+. c #886F6E",
"@. c #D96D42",
"#. c #D87543",
"$. c #D26B5E",
"%. c #C86658",
"&. c #74857F",
"*. c #EBAB3C",
"=. c #DB8B3D",
"-. c #888874",
";. c #B79D65",
":. c #BCA065",
">. c #B09556",
",. c #C49D56",
"<. c #DE9549",
"1. c #C9A559",
"2. c #EBAE44",
"3. c #E7AC48",
"4. c #EDB44A",
"5. c #ECB346",
"6. c #FABA47",
"7. c #E4A75A",
"8. c #ECB455",
"9. c #EBB559",
"0. c #EDBA5B",
"q. c #EAB758",
"w. c #F4B955",
"e. c #CDAC66",
"r. c #E7BA65",
"t. c #E4BE79",
"y. c #DC9166",
"u. c #EEC25E",
"i. c #FFC255",
"p. c #F6C45B",
"a. c #FFC14E",
"s. c #FFCB65",
"d. c #FFCB6A",
"f. c #F2C763",
"g. c #F6D36A",
"h. c #F4D873",
"j. c #EBC86E",
"k. c #F6E179",
"l. c #1C4B9A",
"z. c #1E5294",
"x. c #33589C",
"c. c #2B5091",
"v. c #1E57AC",
"b. c #2758A8",
"n. c #345DA4",
"m. c #285DB6",
"M. c #1B63BB",
"N. c #3363AD",
"B. c #3764AB",
"V. c #2566BA",
"C. c #3A66B2",
"Z. c #3C6BB5",
"A. c #3D6DBA",
"S. c #3565B5",
"D. c #3265B0",
"F. c #3C6B98",
"G. c #4B4C8C",
"H. c #767C83",
"J. c #657A9B",
"K. c #4A73AE",
"L. c #5C5D90",
"P. c #276DC4",
"I. c #396EC1",
"U. c #2871C5",
"Y. c #3971C1",
"T. c #3178D3",
"R. c #1D68C8",
"E. c #4275C3",
"W. c #4377D2",
"Q. c #0C3B8D",
"!. c #947F81",
"~. c #74828D",
"^. c #6E8EB6",
"/. c #3C85D7",
"(. c #4983D6",
"). c #7596C3",
"_. c #6D93C6",
"`. c #7EA2CB",
"'. c #908F8F",
"]. c #AD9191",
"[. c #849CB1",
"{. c #94A4AA",
"}. c #9AAAAB",
"|. c #98A7AB",
" X c #89A1B4",
".X c #9BADB3",
"XX c #97ACB5",
"oX c #9DB1B5",
"OX c #9DB2BA",
"+X c #9CB9BD",
"@X c #8DA4AC",
"#X c #A3ACA9",
"$X c #A7B2AB",
"%X c #A2AEB4",
"&X c #A1B1B6",
"*X c #A1B3BA",
"=X c #A9BABA",
"-X c #B0BEBC",
";X c #CC8987",
":X c #D1928F",
">X c #CCAF93",
",X c #D8B8BA",
"<X c #D4ACAC",
"1X c #E2B3B4",
"2X c #E9CD99",
"3X c #ECCB8D",
"4X c #D2C4A4",
"5X c #D3D1B0",
"6X c #E9D3A7",
"7X c #E5D9BA",
"8X c #E9D0A2",
"9X c #DECA9F",
"0X c #9BB4C7",
"qX c #8CABCE",
"wX c #A4BBC2",
"eX c #A7BED8",
"rX c #B6BFD5",
"tX c #DEBDC1",
"yX c #ADC4CC",
"uX c #ACC6CC",
"iX c #AAC5D6",
"pX c #B7C8D4",
"aX c #B3CDE4",
"sX c #9CC9D5",
"dX c #C2CED6",
"fX c #D8DBDB",
"gX c #CECDD1",
"hX c #E5D0CF",
"jX c #EFE9CA",
"kX c #CBD9E6",
"lX c #D3DDE4",
"zX c #D4DFE8",
"xX c #DDE6ED",
"cX c #DAE6EB",
"vX c #DCE6F2",
"bX c #DDE9F4",
"nX c #DCECFA",
"mX c #DEF7FD",
"MX c #C8EFFB",
"NX c #E4EAEC",
"BX c #E2EBF4",
"VX c #E9EEF4",
"CX c #E3EEFA",
"ZX c #E4EAF8",
"AX c #E5F1F5",
"SX c #EBF1F4",
"DX c #E5F3FC",
"FX c #EAF4FD",
"GX c #E5FEFF",
"HX c #ECFDFF",
"JX c #F3FDFE",
"KX c #FDFFFF",
"LX c #F1F7FD",
"PX c #F0F5E8",
"IX c #D9E5D6",
/* pixels */
"aXKXNXVXVXVXVXVXVXNXNXVXSXNXhXhXhX,X5XhXhXhXhXhXfXhXhXhXhXhXNXhXhX,XhX:X=.<.<.3.1.e.1.1.,.,.,.,.,.,.,.,.,.>.,.,.1.e.t.e.e.1.5XvX",
"aXKXDXFXFXFXDXDXDXAXFXVXVXGXHXSXJXHXGXLXHXHXJXHXJXJXJXHXJXJXJXJXJXJXKXjXa.g.h.g.s.g.g.d.d.d.s.s.s.s.s.s.s.d.d.s.d.p.w.6.a.6.jXJX",
"aXKXAXSXFXVXFXFXFXCXFXFXFXSXVXFXLXVXNXVXBXNXSXNXSXSXSXSXSXSXNXPXSXSXLX7X5.q.u.u.u.0.0.0.r.0.0.0.q.u.q.0.0.r.u.0.0.0.0.r.w.5.7XJX",
"aXKXSXDXCXDXSXFXSXFXDXFXFXDXDXFXFXNXNXFXVXVXVXVXNXSXSXSXSXSXSXSXSXSXLX6X5.u.u.0.0.0.u.r.r.q.q.0.q.q.q.0.q.9.0.0.0.0.0.0.0.5.7XFX",
"kXKXKXKXKXKXKXKXKXJXHXHXHXHXHXHXJXGXDXHXHXDXDXDXHXHXLXHXLXHXHXJXJXJXKXjXg.k.k.k.h.h.k.h.j.h.h.h.g.g.h.h.g.h.h.h.g.h.g.h.g.g.PXJX",
"@X&X|.}.|.|.|.}.%X6X6X6X6X8X8X8X8X8X6X8X2X2X2X2X2X2X2X8X8X8X8X;X$.y.:X$.X.......@.@.#.@.@...............X.#.#.#.@.@.@.#.#.#.y.:X",
"9 9 9 9 9 9 9 9 q ,.6.5.2.2.2.2.2.5.5.5.2.2.3.*.2.2.2.2.2.5.4.b F A A S G S S S S S S S S S S S S S A S c A D A A F D S D A A A ",
"y d y f h g k j u e.i.0.0.q.0.0.0.q.0.9.q.q.q.0.q.9.9.0.0.u.0.] L E R Q R U U T T U I R I I Q U U R T W T P E R R ] _ I Y R T R ",
"y y d g g h k l y 7.i.0.r.0.0.0.9.0.9.0.0.q.7.q.q.0.0.0.0.u.r.{ L Y Q E Q U U U T Q U R T R Q Y R R E Y T E W R R R ~ R W Y P ' ",
"q 9 9 8 9 8 q q 3 1.a.5.4.4.6.4.4.3.8.4.4.2.3.2.5.5.2.2.2.5.8.b A A S ~ / Q / ~ ~ ~ / ~ ^ ^ ~ ~ ~ ~ / ~ ~ ~ / ~ / / / / ( / / } ",
"h H.z z &.z ~.z ~.3Xj.t.t.j.j.>X3Xt.t.3X3X3X3X3X3Xj.3X3X3X2X2Xy.$.$.$.C Z Z M C C n n n n n n n n m m m n C B m m b m m M M B M ",
"}.KXDXDXFXHXFXFXHXHXmXnXnXDXDXSXCXzXcXDXCXDXDXGXDXDXDXDXGXGXHXJXHXJXKXXX9 d d l d d d d d d f d f f f y g l h f y y y f f h h h ",
"#XKXCXCXDXFXGXDXDXDXDXDXDXDXGXDXGXnXCXGXDXDXDXFXDXHXFXDXFXDXFXDXDXDXKX}.q k l g l l l g d d d l l l l l j l j l l l l k k k k k ",
"%XKXnXnXnXAXCXDXDXAXCXmXDXDXDXDXDXbXbXDXFXDXDXFXFXDXFXDXAXDXDXDXDXFXKX#Xw k h g f f f d d f f f d f d j j h h h h j h h k z h j ",
"$XKXDXFXHXmXGXGXGXmXGXGXGXGXGXGXHXmXmXHXGXGXGXGXGXGXGXGXGXGXGXDXDXDXKX}.8 u u u d q q q q q y q d d d d j d d j g j l l k k k g ",
"%XLXvXnXcXBXBXnXDXAXAXAXAXCXCXCXAXbXBXDXCXVXnXVXCXDXSXAXDXSXNXNXCXAXKX}.q u y y f y f y f f f f q y f j h j j g g g h g g f k z ",
"E.(.K./.L.B { { { [ [ [ [ C V V V [ [ [ [ V V V  .[  . . .V  .fXGXAXVXNXIXlXfXcXcXlXfXlXlXfXlXcX>Xb m B B B V M B B B B B C C  .",
"K.C.V.T.G.S ^ G G G K K G A A S A S S S S A F F A F F P D c b fXHXAXCXFXJXJXJXJXJXJXJXHXHXFXHXJXtXG ^ ^ ~ ~ ~ ~ ~ ~ ~ / / / U / ",
"E.E.E.T.G.H ^ J J R R R E ! F T D T T H T P ! T Y T ) ` ) D ` fXHXAXCXSXCXAXAXBXNXAXBXAXbXxXNXHX<XS K R R R R R R Q Q Q _ E _ _ ",
"Y.E.K.T.G.G ^ H K J U U R F P L T E T I H T ) Y Y Y _ _ ) H ) fXGXVXAXSXCXVXSXNXBXBXVXNXBXbXBXFX,XS J R R R R R U U Q Q W W E _ ",
"b.b.m.R.c.S K G S S S S A v v b L Y _ / Q / Q Q Q Q Q _ _ ^ ) PXKXKXKXKXJXKXJXKXKXKXKXJXKXKXKXKXhX^ ( ( ( ( ( ( ( ^ S G G S A A ",
"0XeXeXsXrX1X1X<X1X<X<X1X,X,X<X<X1X].p G.s L.s s s s s p p p L.^.qX).`.).`.`.`.`.`.`.`.qXJ.x x z r : : : : : : : : o.:X:X:X;X;X;X",
"KXKXKXKXKXGXHXGXGXGXHXHXJXHXHXGXKXMXv.M.V.V.V.V.V.M.V.V.V.V.V.b.z.l.l.b.b.b.b.b.b.l.v.V.X               . .   .   z KXHXHXHXJXHX",
"xXmXCXDXAXCXVXCXmXDXAXDXDXDXAXmXHXkXn.N.D.Z.Z.Z.S.B.Z.B.B.B.C.C.Z.Z.Z.C.Z.Z.Z.Z.A.A.E.(.#       . . .             x KXDXSXDXFXFX",
"vXnXDXAXAXmXnXDXmXmXDXDXmXBXmXBXJXkXN.D.B.K.C.S.Z.C.C.C.C.C.C.C.Z.Z.S.C.A.K.I.I.C.A.E.(.#     .     .             x KXDXFXVXFXVX",
"nXmXmXGXDXGXDXmXDXmXGXmXmXGXHXHXKXMXM.R.P.V.P.P.U.U.P.P.P.U.U.b.b.b.b.b.b.v.b.b.v.b.m.m..                         j KXFXHXHXHXHX",
"7XjXjX7XhX7X7X7X7X7X7X7X7X5X>X<X<X:Xp p p p p p p p p p 7 7 7 J.^.^._.^.).)._._.^.)._._.L.w w w 3 3 , , , 3 3 , , -.PXjXjXjXjXhX",
"3.3.3.3.2.2.3.3.2.2.3.2.u. .c c c A I L I I J H G H G D K G ! NXJXHXLXJXLXJXLXLXJXJXJXJXKXKXKXKXjXi.s.s.s.s.d.d.d.f.w.4.3.3.3.3.",
"8.8.8.8.8.8.8.8.8.8.q.4.g.X.c L L T T U Y Y Y E Y I H I U K ! NXHXDXCXCXCXDXCXCXCXCXCXCXnXCXnXGXhX*.8.w.w.9.w.w.w.q.8.9.8.9.9.8.",
"8.8.9.9.9.8.8.8.q.0.q.u.f.X.v P T P L Y Y Y Y T E Y _ L Y G ` NXGXnXCXCXAXnXDXnXCXCXCXCXCXCXnXDX7X*.8.8.9.9.8.9.0.0.0.0.q.9.9.0.",
"u.u.u.0.f.w.f.f.u.f.u.f.k.@.c ` ) Y P P T T H J H I I H H G P NXJXHXHXHXFXHXFXHXHXHXFXFXFXHXFXJX7X*.4.w.0.q.w.w.w.w.w.q.w.w.0.w.",
"7.7.7.7.7.7.7.7.7.7.7.7.r.X.c ` P P ) P L I m B [ B [ [ B m V lXnXcXvXxXxXxXxXxXxXxXxXxXBXxXvXAX7X9.r.r.r.r.r.r.r.r.0.r.r.r.r.r.",
") m ` m m m ) ! ! ! b ` b F K P L T Y P L P '.0XoX*XoXoXoX&X&X}.|.|.{.|.}.|.|.}.|.}.}.}.}.}.}..X&X#X}.$X#X#X%X}.#X#X#X#X#X$X$X$X",
") m ) ` ` ` P S K D D S H D D T L L Y Y _ L ].sX0X+X+XwX=X0X+X%X}.XXoXoXoX.X.X.X.X.XoX.X.X.X.X.XXXXXXXOXOXOXOXOXOXOX0XOX%X.X*X*X",
"] ) ` ] ] ] ] P I T T I T T P T T Y Y ) Y F ].sX&X&XoX*X*X*X*X&XOX.XoX*X+X+XoXoX*X+X&X+X*XOX.X.XoXOXOX+X*X%X&X*XoX&X&X&X%X*X*X%X",
") ) _ _ ] ] ] ' R H T J T K J R U T R Y Y I ].sX=XwX0X=XwX*XwX=X+XOX+X+X*X=X+X=X*XwX*XwX*X.XOXOXoX}.&XoX&X%X&X&XoX*X&X&X&X%X*X%X",
"P L L ! ) _ _ ] ] ' W W R R R W U R W W _ E ].aXyXyXyXyXyXwXyXyXiXwXyXyXyXyXyXyXyXyXuXpXyXyXyXwX+X@X|.|.{.{.{.{.{.{.|.}.}.|.{.|.",
"G.G.G.L.7 O O O O O O O O O O O O ; O O + O < 4 < < < < 4 4 4 4 4 < < e e e e e e e e e e t e , +.cXdXdXpXdXdXdXdXdXdXdXdXdXdXdX",
"P.U.T./.z.              .           .   .   o % % % % % % % % $ o o o $ % % $ $ % % % % % % o + r KXHXFXLXHXLXLXLXLXLXLXLXLXLXLX",
"Z.A.I.(.c.    . . . . X .   .         . . . & : - - - > - - = = = = & & = = = = = = > > = = ; o +.JXCXZXCXBXCXCXDXZXZXCXFXCXDXZX",
"C.Z.K.W.c.      . . X X . . . .           . = : * * = - - - - - = = & & > = > > = = > > > > * o +.JXCXNXBXBXZXZXZXCXCXCXCXFXZXVX",
"l.l.l.m.6                                   o $ o $ $ o $ o $ $ $ % o o $ o $ $ o % $ % % % o + o.KXHXFXLXLXLXLXLXLXLXLXLXLXLXLX",
"qXqXqXqX[.'.~.+.H.z H.z z H.~.H.H.z H.~.H.'.'.'.+.'.'.!.!.'.+.t r r r r r r r r r r r r r r r e '.cXkXkXkXkXkXkXlXlXkXkXlXlXlXlX",
"KXKXLXKXKXKXKXKXKXKXKXKXKXKXKXKXKXJXKXKXJXKXKXKXJXKXLXLXJXKXHXwXyXyXiXyXuXuXpXuXpXuXiXuXuXsXuXpXwX@X{.{.@X{.{.{.{.{.{.{.@X{.{.{.",
"BXxXbXNXBXNXvXbXxXvXnXbXnXvXbXvXnXcXcXbXvXnXvXvXvXbXbXvXvXnXzX}.oX*X*XOX.X*X*XOX+X*X*X*X*XoXoX+X*XoX.X.XXX.X.X.X|.XX.X.X.X.X}.XX",
"BXBXBXnXBXBXBXBXxXbXnXnXnXvXbXxXnXcXcXbXnXvXvXcXvXBXbXvXvXCXzX}..XoX*XoXoXOX&X&X*X*X*XoXoXoXoX.XoX*X&X&X.XXX.X.X.XXX.X.X}.oX.X.X",
"GXHXHXHXHXHXHXHXHXGXGXGXGXGXGXGXGXmXGXGXmXGXHXJXLXLXLXLXLXKXPX$X=X-X-X-X=X=X=X=X=X-X=X-X=X=X=X=X&X.X*X.XXXXXXXXX.XXXXX}.oX.X}..X",
",X,X,X,X,X,X,X,X,XtXtXtX,X,XgX,X,X,X,X,X,X,XrXaXaXpXaXaXaXkXpX^.^.@X[.[.[.[. X X X X X X X@X@X X{.#X.X}.|.|.{.|.|.|.|.|.{.{.{.|.",
"c v c c c A c c A A v c c c c c c A A A G c 6 M.b.b.b.n.n.m.n.m.D.D.D.N.D.D.D.D.D.N.D.D.N.S.S.l.^.VXlXlXlXlXlXlXzXzXzXlXlXlXlXlX",
"D S D D S D H S S S S S S D S A D S G S K S G.P.C.S.S.S.S.C.A.A.S.A.A.A.A.A.A.A.A.A.A.A.A.A.A.v._.LXFXFXFXDXFXFXFXFXFXFXLXLXFXFX",
"T H H H T D H D D T D D D D L D L F L L K D G.R.S.S.K.I.S.S.A.A.A.A.A.A.A.A.A.A.A.A.K.A.Z.Z.A.b.).LXZXBXbXZXBXBXZXZXZXZXZXZXZXZX",
"K K K J K S G G G G S S S D L F L T P L J S G.T.I.I.I.I.I.I.I.I.I.I.I.Y.Y.Y.A.A.A.I.I.I.I.I.V.v._.LXZXBXBXBXbXbXZXZXNXZXNXZXZXvX",
"D F F D F F v b F b P b m F D F P P b F G F G.V.S.m.S.D.S.S.m.n.n.n.D.D.N.N.n.n.N.N.n.D.N.N.b.l._.LXVXbXbXBXZXZXBXZXZXBXZXZXvXZX",
": - : $ o.4X>X>X>X>X>X>X4X| c P P F F P D S N N N N N N N N Z ;.e.;.e.;.:.;.;.:.;.;.;.;.;.;.;.>.>XFXZXAXBXvXVXZXNXZXNXVXZXNXNXZX",
"; ; O + t jX5X5X5X5X5X5XIX .c L L Y T T T D K ^ ^ ^ ^ ^ K K Q 9.i.w.w.w.i.i.i.i.i.i.p.w.i.i.a.6.3XmXnXDXBXxXbXBXCXZXZXZXZXvXvXZX",
"& & = O o.7X4X4X4X4X5X5X5X%.A L T ) P T D K H L G H H T D G ' r.p.9.9.9.9.8.8.8.8.8.8.9.8.q.8.*.3XGXDXDXBXxXCXZXCXVXDXZXCXvXBXZX",
"* & * o o.7X>X4X4X4X4X5X5XX.c P T P _ T H G H K K H H H H G ! 9.q.8.9.8.8.q.8.8.a.4.q.8.8.8.8.*.3XGXFXHXvXNXZXZXVXCXZXVXDXNXbXZX",
"% % & $ o.jX7X6X6X4X>X4X5X .c A A A A S A A S S A S S S S A F 7.5.*.3.f.d.s.d.s.p.a.g.s.p.i.i.6.3XKXKXKXKXKXKXKXKXKXKXKXKXKXKXKX",
"6 6 6 6 d ^.J.J.~.dXfXfXfX,X:X;X;X;X;X;X;X:X:X;X;X;X;X;X;X:X<X7X6X9X6X>.5 i i i i &.O.i -.~.&.-.{.qXqXqXqXqX0XqX0X X{.|.#X#X%X=X",
"N.K.N.N.x.z.l.Q.l.kXFXvXvXGXGXGXGXGXGXGXHXGXGXGXGXGXGXGXGXGXGXnXmXDXKXu   @ @ @ @ @ @ @ 0 M.b.b.b.b.l.l.l.l.l.l.m.#             ",
"x.n.x.x.n.x.x.x.x.kXVXvXvXxXvXvXvXvXbXbXbXBXBXbXbXvXBXBXBXbXNXvXnXAXPX&.@ 1 1 1 1 1 1 1 F.W.K.Z.S.S.Z.C.S.A.C.A.(.6             ",
"x.x.n.c.n.x.x.c.F.kXSXNXvXvXvXcXvXvXNXBXBXvXbXBXvXBXBXbXbXvXBXZXbXAXPX&.@ 1 1 1 1 1 1 1 F.E.A.Z.B.K.C.C.n.K.C.A.(.6   .         ",
"x.x.c.c.n.x.x.l.x.DXKXJXLXKXKXLXJXKXJXKXKXKXKXKXKXKXLXBXVXBXvXBXBXAXKXu @ @ @ @ @ @ @ @ c.V.x.n.b.n.b.b.l.b.b.D./.6 .           ",
"n.A.n.n.n.B.n.n.n.eXrXeXeXeXeXeXiXeXeXeXeXeXeXeXeXeXpXzXlXlXlXlXlXcXJX~.2 3 8 5 8 3 5 5 F.^.K.K.K.K.K.K.K.B.K.Z.K.0 # X # # + X "
};
