/* XPM */
static char *e88384414ce34ac6a58e99af44be6c7fAUTsrzkSzchvJRoP[] = {
/* columns rows colors chars-per-pixel */
"64 64 67 1 ",
"  c black",
". c #0D0100",
"X c #010C00",
"o c #0F0A05",
"O c #03050B",
"+ c #09060B",
"@ c #05080D",
"# c #0C0C0D",
"$ c #021300",
"% c #041B00",
"& c #0E0E10",
"* c #101110",
"= c #052300",
"- c #052400",
"; c #062C00",
": c #073200",
"> c #083600",
", c #083B00",
"< c #083C00",
"1 c #0A4500",
"2 c #0A4C00",
"3 c #0C5500",
"4 c #0D5B00",
"5 c #0D5C00",
"6 c #0E6400",
"7 c #0F6C00",
"8 c #106F00",
"9 c #107400",
"0 c #127D00",
"q c #138500",
"w c #148D00",
"e c #159300",
"r c #169B00",
"t c #16A100",
"y c #17A400",
"u c #18A700",
"i c #18A800",
"p c #18A900",
"a c #18AD00",
"s c #19B100",
"d c #1AB700",
"f c #1BB900",
"g c #1BBA00",
"h c #1BBB00",
"j c #1BC000",
"k c #1CC300",
"l c #1CC400",
"z c #1CC700",
"x c #1CCB00",
"c c #1DCC00",
"v c #1ED200",
"b c #1ED500",
"n c #1FD900",
"m c #1FDC00",
"M c #20DD00",
"N c #1FE000",
"B c #20E300",
"V c #21E600",
"C c #21EB00",
"Z c #21EC00",
"A c #22F100",
"S c #23F500",
"D c #23F700",
"F c #23F800",
"G c #24FB00",
"H c #24FC00",
"J c #28FF00",
/* pixels */
"#                                                               ",
"#                                                               ",
"#                                                               ",
"#                                                               ",
"&                                                               ",
"+ =fZv3   =pNe   X3jM,   XqZC9   ;zFx1   :xFz1  X4vb;   %rAd    ",
" $fSrMZ>  1pNr   X9sA2  X0HjfF9 %cArBB= =vZeCM% $0kZ,   =aBx    ",
"O;He :He   %ct     <F2  %mn %Vb 1J0 2H0 2H0 2G0   3G,    $av    ",
"+2F6 %Vd   %xt     ,F2  -Sp $sBX6H3 ;Sr 9H2 >Hr   3H<    $av    ",
"X2F6 %Ck   %ct     ,H2  -Au $dV$6H3 ;Ga 8S2 >Hp   3F<    $pv    ",
"O;He :Ht   $ct     ,F2  %Nn %Bn 1H0 1Jw 2H0 2Jw   3H,    $av    ",
"+$zN0fA1 X;6bf1X X>qHw> XwHewHq =MM9zZ> =Bb9cV; X<rF0;  %3xV2%  ",
"# ,VHS9  XtHHHZ3 =AHHHcX $fHHaX  1SHZ6   2SHZ5  >HHHHf  0JHHH0  ",
"#   -X                     %%     X=X     X=X                   ",
"#                                                               ",
"#                                                               ",
"@ %dAv3   =pne   X3jM<   $wBx    ;xSx1   ;fB0   X5CStX  %rZf    ",
"O$fFrnZ,  1yVr   X8sA2   %pbn   %vAeVB= X1sCw   1HceHt  =aBx    ",
"O;He :He   %xt     <F2    XeB   1Hq 2G0   ;bw  XtZ=XtZ;  $ab    ",
"@2S6 %Cs   %xt     <H2    XeB   6H3 ;Gt   ;Me  %jM  0H2  Xav    ",
"@2S9 %Zz   %xt     ,F2    XeB   6G3 ;Ga   ;nw  %kn  9H3  $av    ",
"+;He ;Hr   %xt     ,H2    XeB   1Hq 1Jw   ;ne  XtC=XyA,  $av    ",
"&$zm0fA1  ;6Mf2X X<qHq>  %3fC3= -nb9xC:  ;9Bf,X 2Js9Hf  %3cV2=  ",
"& >VHF9  XtHHFZ2 %ZHHHcX 7HHHFe  2SHZ6  $sHHHV< XqHHx= X0JHHH0  ",
"&  X=X                            X=X             X%            ",
"&                                                               ",
"#                                                               ",
"o                                                               ",
"o -fAv3   =pne   X3jM<   XqZV9   ;zSz1   :xSz1  X6vb;   $eAV6  O",
"oXfArnZ>  1uVr   X8sA2  X0HffH9 %vArVB= %vZeCM% %9kC,  XeGfzG6  ",
"o;He ;He   %xt     ,F2  %mn %Nn 1H0 2H0 2H0 2G0   3F,  ;Fx ;Sk  ",
"o2F9 %Cs   %xt     ,H2  -Sp $fNX6H3 ;Hr 8H3 >Hr   3H,  ,Ge %kM  ",
".2F6 %Cj   %xt     ,F2  -Ap $dV$6H3 ;Ha 7H2 >Hu   3F<  <He %xMX ",
".;He :Hy   %xt     <H2  %Nn %Vn 1Hq 1Jw 2H0 2Jw   3H<  ;Sz :Az  ",
".$zm0fA1  =7Mf1X X<qHw> XwFeeHq %MM9xV: -NM9cC; X<rH0; XtGwrH8  ",
". ,VHS9  $rHHFA3 %AHHHcX %dHGpX  2AHC6   2SHC3  :HHHHf  =zGHrX  ",
".  X=X                     %%     X=X     X=X             %%    ",
"O                                                               ",
"@                                                               ",
"@ %fAv3   =fFc3  X3jM,   $wBx    :zSx1   :xFz1  X6cb;   %rAd    ",
"O$fFrnZ> $kFrnZ: X9sA2   %pbn   %cZrVB= %MZeCB% $0jZ<   =aMx    ",
"O;He :He :Hw >Hw   ,F2    XeB   2Hq 1Hq 2F0 2H0   3H,    $pM    ",
"@2F6 %Vf 3F6 =Za   ,F2    XeB   6F3 ;Hr 8H2 >Hr   3F,    $aM    ",
"*2F6 %Zh 3H6 %Zf   ,H2    XeB   6H3 ;Ha 8F2 >Hp   3G,    Xac    ",
"#;Fe ;Hp >Hw >Hr   <F2    XeN   1H0 1Jw 2J9 3Jq   3H<    XaM    ",
"*$xV0fA1 %cM9kZ1 X<qHw:  %3fA3- =MM9zC> =NM9cV; X<eH0; X%3zM2%  ",
"& >VHS9   ,VHA8  %AHHHcX 9HHHFe  2SHC4   2SHZ4  >HHHGf  qJGGGq  ",
"#  X%X     X=$                    X=X     X-X                   ",
".                                                              O",
".                                                               ",
".                                                               ",
". =dAv3   =pMe   X3jM<   XqZV9   ;zSx1   ;fB0    5ZFrX  $eFV6   ",
".$fSrmC>  1pNt   X9sA2  X0HffF9 %vAeVB= X1dVw   2HxeGu XeGdkS6  ",
" ;He ;Ge   %ct     ,F2  %NM %Zb 1Hq 2H0   ;ne  XtZ-XtC%=Fx ;Sk  ",
".2F6 %Zd   $ct     <F2  -Fp $fnX6F3 ;Ft   ;ne  $fM  0G,;He %zM  ",
" 2F8 %Zk   %xt     <H2  =St $sV$6H3 ;Hs   ;nw  %kn  9G1;He %kMX ",
" ;He :Ht   %ct     ,F2  %Nn %Vn 1H0 1Gw   ;nw  XtZ-XpA;%Sk ;Fz  ",
".$zB0fA1 X=6nf2X X,qHq: XwHeeHq =Mb9xC>  ;9Mf<X 2Js9Gf XtHwrH9  ",
"O >VHF9  XrHHHZ2 =AHHHc$ %dHHpX  2SHA4  %sGGFV, XqHHj-  =zGGeX  ",
"O  X=X                     %%     X-X             X%      %%    ",
"O                                                               ",
"O                                                               ",
"O                                                               ",
"O                                                               "
};
