/* XPM */
static char *b7b88b85d46c4c11ed9ea99605faf511GmNkWf5if5P4wztb[] = {
/* columns rows colors chars-per-pixel */
"64 64 221 2 ",
"   c None",
".  c #D78E0B",
"X  c #D0890E",
"o  c #DE9307",
"O  c #DA9009",
"+  c #DA900A",
"@  c #DE9509",
"#  c #CA8B11",
"$  c #C98912",
"%  c #CC8A10",
"&  c #CD8A16",
"*  c #E09507",
"=  c #E59B05",
"-  c #EA9D02",
";  c #EC9F01",
":  c #E99E05",
">  c #DEA40C",
",  c #D9A01C",
"<  c #DFA41D",
"1  c #EDA001",
"2  c #EFA000",
"3  c #EEA100",
"4  c #EFA100",
"5  c #EFA200",
"6  c #EFA300",
"7  c #EFA201",
"8  c #EFA609",
"9  c #E6AF09",
"0  c #E2AA0C",
"q  c #E8A80A",
"w  c #F0A200",
"e  c #F1A200",
"r  c #F1A300",
"t  c #F0A400",
"y  c #F2A400",
"u  c #F3A500",
"i  c #F3A600",
"p  c #F3A702",
"a  c #F4A700",
"s  c #F5A800",
"d  c #F6A900",
"f  c #F7AA00",
"g  c #F7AB01",
"h  c #F4A902",
"j  c #F7AC01",
"k  c #F7AC02",
"l  c #F7AE02",
"z  c #F7AE03",
"x  c #F7AE04",
"c  c #F7AC06",
"v  c #F8AC00",
"b  c #F8AD01",
"n  c #F8AD02",
"m  c #F8AE02",
"M  c #F2AA08",
"N  c #F7AE09",
"B  c #F3B204",
"V  c #F9B501",
"C  c #F9B005",
"Z  c #FAB900",
"A  c #FBBC00",
"S  c #FBBE00",
"D  c #F9BE07",
"F  c #F3B60F",
"G  c #F9B508",
"H  c #FAB508",
"J  c #FAB709",
"K  c #F2BF0F",
"L  c #FAB80A",
"P  c #FAB90B",
"I  c #FBBC0D",
"U  c #FBBD0E",
"Y  c #FBBE0E",
"T  c #FBBE0F",
"R  c #FBBF0F",
"E  c #E3AB12",
"W  c #E5A912",
"Q  c #EDAF11",
"!  c #EBA817",
"~  c #ECB013",
"^  c #EABE11",
"/  c #E7B41C",
"(  c #E7B81A",
")  c #F3B213",
"_  c #F6B213",
"`  c #F7B315",
"'  c #F7BB11",
"]  c #F1B619",
"[  c #F5BA1D",
"{  c #FABD1B",
"}  c #DFAD26",
"|  c #DBA12A",
" . c #E1AF25",
".. c #E2B222",
"X. c #E6B526",
"o. c #EEB622",
"O. c #EEBD20",
"+. c #EEBF23",
"@. c #E9B924",
"#. c #F4BA21",
"$. c #F7C302",
"%. c #FBC106",
"&. c #FBCA02",
"*. c #FEC800",
"=. c #FECA00",
"-. c #FECB01",
";. c #FFCE00",
":. c #FFCF02",
">. c #FDCC05",
",. c #F2C40E",
"<. c #FDC70A",
"1. c #FCC00F",
"2. c #FECE0A",
"3. c #FECF0B",
"4. c #FEC90F",
"5. c #FFD205",
"6. c #FED20A",
"7. c #FFD508",
"8. c #FFD609",
"9. c #FFD10C",
"0. c #FFD20C",
"q. c #FFD30C",
"w. c #FDD10F",
"e. c #FFD10F",
"r. c #F2C611",
"t. c #FAC310",
"y. c #FCC010",
"u. c #FCC110",
"i. c #FDC710",
"p. c #FBC016",
"a. c #FCC215",
"s. c #FDCB16",
"d. c #F9CD15",
"f. c #F0C11E",
"g. c #FCC31E",
"h. c #FCCD1A",
"j. c #FDCD1B",
"k. c #F9CF1E",
"l. c #F7D111",
"z. c #FDD010",
"x. c #FED010",
"c. c #FFD112",
"v. c #FFD214",
"b. c #FFD314",
"n. c #FFD414",
"m. c #FFD417",
"M. c #FED911",
"N. c #FFDB11",
"B. c #FFDD11",
"V. c #FFDD13",
"C. c #FFDD14",
"Z. c #FFDE15",
"A. c #FFDE16",
"S. c #FED31D",
"D. c #FED41E",
"F. c #FFD51E",
"G. c #FFD61E",
"H. c #FFDE19",
"J. c #FFDA1C",
"K. c #FFDE1D",
"L. c #FFDF1E",
"P. c #EFC320",
"I. c #F6C724",
"U. c #F8C423",
"Y. c #FBC524",
"T. c #F8C725",
"R. c #F8C527",
"E. c #FBCB20",
"W. c #FACA25",
"Q. c #FACE25",
"!. c #F6C12C",
"~. c #F6C12D",
"^. c #F6C32E",
"/. c #FAC429",
"(. c #F8C72A",
"). c #FDCC2B",
"_. c #F9CA2D",
"`. c #FED421",
"'. c #FFD623",
"]. c #FEDB20",
"[. c #FFDC20",
"{. c #FFDF20",
"}. c #FFDE22",
"|. c #FEDF22",
" X c #FFD926",
".X c #FFD927",
"XX c #FFDD24",
"oX c #FFDD26",
"OX c #FBD12B",
"+X c #F9D928",
"@X c #FFD929",
"#X c #FFDF2B",
"$X c #FDD92D",
"%X c #FFDA2C",
"&X c #FFD92F",
"*X c #FFDF2F",
"=X c #F8C730",
"-X c #FCD232",
";X c #FED630",
":X c #FFDB31",
">X c #FED836",
",X c #FED837",
"<X c #FEDC35",
"1X c #FFDE34",
"2X c #FFDD36",
"3X c #FDD73A",
"4X c #FDD43D",
"5X c #FFDD39",
"6X c #FFDF3C",
"7X c #FFDF3E",
"8X c #FFE02A",
"9X c #FFE22C",
"0X c #FFE439",
"qX c #FFE43A",
"wX c #FBD849",
"eX c #FEDE48",
"rX c #FFE345",
"tX c #FFE24E",
"yX c #FFE34F",
"uX c #FFE85E",
"iX c #FFE560",
/* pixels */
"                                                                                                                                ",
"                                                                                                                                ",
"                                                                                                                                ",
"                                                                                                                                ",
"                                                                                                                                ",
"                                                                                                                                ",
"                                                                                                                                ",
"                                                                                                                                ",
"                                                                                                                                ",
"                                                                                                                                ",
"                                                                                                                                ",
"                                                                                                                                ",
"                                                                                                                                ",
"                                                                                                                                ",
"                                                                                                                                ",
"                                                                                                                                ",
"                                                                                                                                ",
"                                                                                                                                ",
"                                                                                                                                ",
"                                                                                                                                ",
"                                                                                                                                ",
"                                                                                                                                ",
"                                                          7X&XF.n.8X8X2X                                                        ",
"                                                      tX'.>.+. .} ..P.c.0.0X                                                    ",
"                                                    5X&.> & + ; f f 3 ! OXB.8X                                                  ",
"                                                  7X$.$ + w w f %._ s k Y 4XJ. X                                                ",
"                                                iX0.$ o 3 w f c ;.q k Y u.u.Y.B.0X                                              ",
"                                                &X9 . w 3 u /.2.;.7.c.1.u.G k 2X{.                                              ",
"                                              uX0.% 3 3 u N c.;.0 r.l.W G k Y ).A.rX                                            ",
"                                              tXK X 3 u f ` ;.d.] y.Q L f T y.y.#X*X                                            ",
"                                              2X/ * u f f u S.B.{.s.P f Y y.y.y.F. X                                            ",
"                                              :XX.= f f 3 f { k.J.5.;Xp.R y.y.y.4.@X                                            ",
"                                              ,X( - f w w V u.u.) c.B.I.u.T u.G <.`.                                            ",
"                                              wX+X@ w w p R k.g.m h.B.@.u.u.G f 9.-X                                            ",
"                                              =XoX| w w c i.7.n.J.C.|., y.L f V m.~.                                            ",
"                                              8 >XU.- f f R B r.B.,., ' Y c f *.3XM                                             ",
"                                                +.#X+.f f x C p.A.E y.P m f A m.~.                                              ",
"                                                t =XL.1.u s u.T o.~ T m f S 0.(.w                                               ",
"                                                  w I.0.0.D 1.y.y.T m A *.F.(.;                                                 ",
"                                                    3 [ &XH.B.M.7.*.;.'.eX#.w                                                   ",
"                                                      3 w ) U.OXE.W.=X` 3 w                                                     ",
"                                                          3 3 w 3 3 3 3                                                         ",
"                                                                                                                                ",
"                                                                                                                                ",
"                                                                                                                                ",
"                                                                                                                                ",
"                                                                                                                                ",
"                                                                                                                                ",
"                                                                                                                                ",
"                                                                                                                                ",
"                                                                                                                                ",
"                                                                                                                                ",
"                                                                                                                                ",
"                                                                                                                                ",
"                                                                                                                                ",
"                                                                                                                                ",
"                                                                                                                                ",
"                                                                                                                                ",
"                                                                                                                                ",
"                                                                                                                                ",
"                                                                                                                                ",
"                                                                                                                                ",
"                                                                                                                                ",
"                                                                                                                                "
};
